<svg xmlns="http://www.w3.org/2000/svg" width="72" height="72" fill="none"><path fill="#fff" d="M67 17H5v38h62V17Z"/><path stroke="#000" stroke-linecap="round" stroke-linejoin="round" stroke-width="2" d="M67 17H5v38h62V17Z"/><path fill="#000" d="M17.284 26v11.642c0 1.79-1.493 3.283-3.284 3.283V46c4.478 0 8.209-3.731 8.209-8.358V26h-4.925Zm7.462 0v6.716a5.82 5.82 0 0 0 5.821 5.821 5.82 5.82 0 0 0 3.284-1.044 5.82 5.82 0 0 0 3.283 1.044l.747-.149a3.284 3.284 0 0 1-3.135 2.537V46c4.478 0 8.21-3.731 8.21-8.358V26H38.03v6.716a.895.895 0 0 1-1.642 0V26h-5.075v6.716a.895.895 0 0 1-1.641 0V26h-4.926Zm20.747 0v11.642h4.925V26h-4.925Zm7.462 0v11.642c0 1.79-1.492 3.283-3.283 3.283V46a8.344 8.344 0 0 0 8.358-8.358V26h-5.075ZM24.746 40.925V46h7.463v-5.075h-7.463Z"/></svg>