<svg xmlns="http://www.w3.org/2000/svg" viewBox="0 0 72 72" fill="none"><path fill="#D22F27" d="M67 17H5v38h62V17Z"/><path fill="#F1B31C" d="m13.995 20-.673 2.074h-2.178l1.762 1.282-.673 2.075 1.762-1.282 1.762 1.282-.673-2.075 1.762-1.282h-2.178L13.995 20Zm0 1.08.43 1.328h1.395l-1.128.821.43 1.328-1.127-.82-1.127.82.43-1.328-1.127-.82h1.393l.431-1.328ZM9.183 30.85l1.492 1.5 1.406-1.396c2.14 2.293 4.384 4.503 6.508 6.804a.82.82 0 0 0 1.163-1.154c-2.279-2.148-4.565-4.313-6.844-6.47l1.895-1.88-2.637-.364-2.983 2.96Z"/><path fill="#F1B31C" d="M13.995 25.991c1.227.69 2.159 1.681 2.708 2.717.557 1.05.802 2.146.807 3.022.01 1.797-1.458 3.253-3.256 3.253a3.25 3.25 0 0 1-2.419-1.074l-.33.277a.495.495 0 0 0-.55.142.618.618 0 0 0-.508.418 2.125 2.125 0 0 1-1.223 1.07c-.243.09-.487.25-.695.459-.41.413-.61.943-.498 1.314a.31.31 0 0 0 .419.384c.37.084.875-.122 1.27-.518.223-.225.39-.491.472-.753.184-.523.578-.949 1.078-1.189a.223.223 0 0 0 .03-.017.618.618 0 0 0 .334-.412 4.323 4.323 0 0 0 3.204 1.511c2.36.056 4.123-1.679 4.205-4.173.04-1.256-.446-2.875-1.554-4.202a6.947 6.947 0 0 0-3.494-2.229Z"/><path stroke="#000" stroke-linecap="round" stroke-linejoin="round" stroke-width="2" d="M67 17H5v38h62V17Z"/></svg>