<svg width="420" height="420" viewBox="0 0 420 420" fill="none" xmlns="http://www.w3.org/2000/svg">
<path d="M373.333 58.3333H46.6667C20.895 58.3333 0 79.2282 0 105V315C0 340.772 20.895 361.667 46.6667 361.667H373.333C399.105 361.667 420 340.772 420 315V105C420 79.2282 399.105 58.3333 373.333 58.3333Z" fill="#CC0000"/>
<path d="M373.333 58.3333H46.6667C20.895 58.3333 0 79.2282 0 105V315C0 340.772 20.895 361.667 46.6667 361.667H373.333C399.105 361.667 420 340.772 420 315V105C420 79.2282 399.105 58.3333 373.333 58.3333Z" fill="white"/>
<path d="M328.597 268.558C337.04 265.093 345.454 261.578 353.899 258.121C353.453 259.399 352.869 260.861 351.369 261.507C343.584 264.69 335.814 267.9 328.031 271.081C327.518 271.3 327.008 271.539 326.449 271.655C326.962 270.78 327.446 269.894 327.94 269.013C328.046 268.767 328.342 268.668 328.597 268.558ZM302.305 256.512C304.123 257.692 305.776 259.041 306.935 260.494C309.08 263.295 309.634 266.928 308.302 270.079C308.186 270.337 307.942 270.53 307.734 270.737C308.147 268.993 308.269 267.146 307.623 265.432C306.737 262.943 304.733 260.853 302.057 259.629C302.103 258.541 302.239 257.442 302.305 256.512ZM232.65 254.996C233.781 254.185 235.352 254.106 236.768 254.108C238.19 254.192 239.694 254.246 240.948 254.889C241.541 255.474 240.977 256.166 240.37 256.533C237.904 258.042 235.189 259.351 233.188 261.332C232.645 261.844 232.927 262.641 233.613 262.94C234.65 263.381 235.851 263.402 236.991 263.377C239.698 263.253 242.298 262.384 244.563 261.147C245.194 260.806 245.76 260.382 246.412 260.066C245.016 261.501 243.446 262.819 241.715 263.964C240.256 264.893 238.611 265.699 236.785 265.942C235.348 266.045 233.802 265.986 232.561 265.298C231.179 264.604 230.531 263.051 231.042 261.769C231.351 261.048 231.923 260.439 232.525 259.877C234.077 258.483 235.975 257.416 237.868 256.387C236.585 256.335 235.285 256.277 234.01 256.409C233.177 256.48 232.618 257.009 232.027 257.439C231.848 256.603 231.844 255.611 232.65 254.996ZM181.844 252.897C182.97 252.43 184.522 252.498 185.41 253.311C186.152 254.056 186.232 255.082 186.178 256.014C185.582 256.687 184.897 257.306 184.398 258.038C183.355 258.202 182.259 258.058 181.238 258.318C180.725 258.571 180.054 258.725 179.808 259.235C179.486 259.893 179.636 260.624 179.772 261.305C180.302 263.684 181.283 266.022 181.232 268.472C181.175 269.331 181.108 270.223 180.628 271C180.517 269.638 179.951 268.35 179.541 267.04C178.767 264.652 178.153 262.202 178.062 259.72C177.961 258.764 178.609 257.942 179.263 257.222C180.229 256.077 181.96 255.741 183.497 255.494C183.098 255.181 182.646 254.821 182.054 254.891C181.228 254.993 180.668 255.579 180.214 256.119C180.132 254.927 180.517 253.518 181.844 252.897ZM255.522 252.436C255.595 252.371 255.692 252.346 255.812 252.363C255.374 252.787 255.134 253.322 254.798 253.803C253.841 255.337 252.734 256.965 252.989 258.77C253.016 259.617 253.578 260.711 254.745 260.704C255.315 260.464 255.463 259.847 255.749 259.403C255.713 260.724 255.484 262.329 254.02 263.085C252.804 262.919 251.891 262.004 251.843 260.972C251.594 257.849 253.136 254.77 255.522 252.436ZM37.4417 234.844C38.138 233.792 38.7921 232.646 40.0101 231.95C38.5315 234.48 36.9937 237.045 36.3479 239.839C36.1333 240.907 36.026 242.141 36.8401 243.059C37.4732 243.635 38.4892 243.74 39.3559 243.562C40.6707 243.316 41.2828 242.15 41.8254 241.224C42.242 241.914 41.8107 242.66 41.6193 243.348C41.0745 244.805 40.4245 246.383 38.9206 247.33C37.7657 248.079 36.1103 247.779 34.9996 247.12C33.5355 246.15 33.5019 244.389 33.7586 242.965C34.3369 240.081 35.8325 237.405 37.4417 234.844ZM144.63 223.557C145.059 222.865 145.901 222.045 146.934 222.39C148.175 222.708 149.651 223.542 149.454 224.794C149.121 225.22 148.694 225.586 148.318 225.983C147.916 225.338 147.466 224.512 146.523 224.375C145.297 224.716 144.563 225.759 144.176 226.752C143.362 228.922 143.181 231.214 142.954 233.469C142.657 233.603 142.361 233.735 142.058 233.856C142.066 231.781 141.534 229.576 139.891 227.968C139.519 227.435 138.692 227.702 138.133 227.446C137.089 227.128 136.711 226.163 136.458 225.338C136.332 224.78 136.107 224.109 136.546 223.612C137.47 223.387 138.194 224.074 138.852 224.507C140.547 225.873 141.719 227.631 142.678 229.421C143.082 227.422 143.509 225.372 144.63 223.557ZM321.001 218.078C322.284 217.704 323.635 218.196 324.684 218.824C326.436 219.922 327.804 221.415 328.86 223.018C329.423 223.947 330.067 224.965 329.84 226.046C329.705 226.773 329.638 227.554 329.125 228.175C328.557 228.771 327.49 228.71 326.775 228.355C325.959 227.963 325.181 227.515 324.327 227.184C323.172 229.844 320.738 231.939 318.1 233.601C316.314 234.76 314.356 235.713 312.372 236.602C311.148 237.162 309.794 237.462 308.481 237.826C307.171 238.141 305.837 238.557 304.453 238.441C305.326 238.398 306.016 237.918 306.752 237.576C310.589 235.684 314.347 233.649 317.761 231.237C319.575 229.907 321.428 228.521 322.65 226.749C321.861 226.604 321.07 226.479 320.273 226.388C319.631 224.807 319.625 222.872 321.009 221.563C320.319 221.114 320.239 220.299 320.123 219.621C320.025 219.031 320.259 218.282 321.001 218.078ZM324.442 221.996C324.703 223.168 324.781 224.363 324.802 225.554C325.883 225.686 326.958 226.05 328.06 225.944C328.622 225.875 328.601 225.249 328.289 224.951C327.265 223.755 325.843 222.854 324.442 221.996ZM320.78 223.908C321.333 224.777 322.587 224.998 323.611 225.276C323.822 224.716 324.093 224.129 323.99 223.535C323.62 222.922 323.117 222.119 322.187 222.123C321.384 222.473 321.066 223.236 320.78 223.908ZM249.813 216.428C250.45 215.729 251.53 215.388 252.548 215.361C253.254 215.356 253.597 216 253.759 216.49C254.066 217.647 254.121 218.906 253.456 219.985C253.801 220.197 254.148 220.413 254.502 220.623C254.409 221.364 254.344 222.109 254.327 222.854C253.624 222.535 253.084 222.027 252.482 221.599C250.61 224.336 247.873 226.71 244.464 228.051C242.661 228.821 240.598 229.158 238.591 228.946C242.392 227.794 246.083 226.132 248.841 223.582C249.79 222.708 250.606 221.741 251.296 220.707C250.762 220.224 250.122 219.81 249.706 219.245C249.373 218.341 249.129 217.26 249.813 216.428ZM250.856 217.319C251.132 217.981 251.66 218.527 252.209 219.04C252.44 218.468 252.743 217.845 252.404 217.257C251.885 217.171 251.363 217.22 250.856 217.319ZM37.6622 224.484C45.2897 220.424 52.9485 216.401 60.5903 212.362C60.3715 213.773 59.8016 215.404 58.1987 216.11C51.1246 219.828 44.0336 223.525 36.9703 227.256C36.7874 227.338 36.5958 227.405 36.396 227.457C36.8463 226.475 37.189 225.456 37.6622 224.484ZM197.344 203.036C197.931 202.315 198.594 201.625 199.336 201.012C198.789 202.064 199.115 203.212 199.37 204.288C199.658 205.465 200.047 206.62 200.483 207.765C200.788 208.628 201.955 208.931 202.889 209.101C203.449 209.252 204.134 208.899 203.918 208.357C203.402 206.959 202.744 205.602 201.991 204.286C202.258 203.403 202.561 202.529 202.817 201.645C203.171 201.645 203.528 201.649 203.888 201.652C204.197 203.287 205.117 204.771 205.962 206.24C205.964 207.829 205.853 209.486 205.188 210.993C204.744 212.061 203.259 212.392 202.06 212.307C200.468 212.046 199.412 210.882 198.478 209.858C198.013 211.201 196.698 212.243 195.142 212.663C193.825 213.074 192.306 212.478 191.6 211.494C190.825 210.402 190.678 209.085 190.714 207.836C190.784 206.051 191.192 203.97 193.081 202.899C193.213 202.899 193.478 202.9 193.611 202.9C193.527 202.932 193.354 202.995 193.27 203.027C192.122 204.808 192.05 207.046 193.07 208.881C193.367 209.46 194.118 209.878 194.877 209.742C195.824 209.548 196.573 208.977 197.218 208.389C197.241 206.604 197.233 204.817 197.344 203.036ZM46.8577 199.307C48.57 198.993 50.1287 199.901 51.3465 200.812C52.9767 202.162 54.3355 203.771 55.1959 205.566C55.4568 206.108 55.5723 206.7 55.4756 207.284C55.3514 208.058 55.28 208.906 54.6993 209.55C54.0178 210.083 52.9429 209.967 52.2194 209.557C51.4999 209.154 50.749 208.792 49.9665 208.485C48.7927 211.119 46.3948 213.202 43.7801 214.864C41.7271 216.18 39.489 217.286 37.1751 218.236C35.5175 218.769 33.8221 219.228 32.1014 219.592C31.4157 219.75 30.7026 219.734 30 219.718C30.4123 219.636 30.8519 219.609 31.2284 219.429C34.9937 217.627 38.6661 215.67 42.0887 213.427C44.4004 211.849 46.6953 210.178 48.3358 208.058C47.5385 207.904 46.7371 207.76 45.923 207.694C45.2815 206.109 45.2625 204.179 46.615 202.849C45.963 202.366 45.8683 201.571 45.7505 200.889C45.6266 200.229 46.0241 199.446 46.8572 199.307M50.0545 203.254C50.3574 204.436 50.3868 205.65 50.4436 206.854C51.5837 206.963 52.7322 207.421 53.8807 207.182C54.4128 206.929 54.0385 206.349 53.7607 206.053C52.7112 204.96 51.3817 204.088 50.0545 203.254ZM47.2548 203.762C46.8803 204.233 46.4449 204.775 46.5038 205.368C47.1664 206.075 48.2854 206.369 49.2972 206.524C49.3961 206.185 49.514 205.854 49.5917 205.513C49.8693 204.821 49.2383 204.201 48.7335 203.719C48.357 203.332 47.5807 203.32 47.2548 203.762ZM174.264 197.943C175.381 198.733 176.06 199.869 176.816 200.905C178.749 203.788 180.396 206.802 181.99 209.828C185.488 216.324 187.789 223.259 189.056 230.312C189.414 232.498 189.78 234.697 189.706 236.911C189.919 241.307 190.535 245.801 192.699 249.847C194.292 252.595 197 255.034 199.121 256.817C200.132 257.409 200.56 257.27 200.826 257.028C200.991 256.878 200.926 254.95 201.263 254.044C201.742 252.557 202.84 251.291 204.008 250.137C205.314 248.925 206.793 247.812 208.539 247.079C212.035 245.576 215.659 244.297 219.319 243.113C222.075 242.247 224.877 241.478 227.742 240.92C215.445 240.993 203.148 241.079 190.851 241.198C191.465 238.666 192.089 236.136 192.723 233.607C194.027 232.156 195.668 230.963 197.287 229.777C204.338 224.844 212.478 221.194 220.722 217.926C219.757 216.643 218.415 215.449 218.202 213.874C217.704 211.663 218.787 209.477 220.15 207.636C220.958 206.591 221.713 205.45 222.956 204.731C224.204 203.998 225.892 203.95 227.256 204.471C231.827 206.211 236.542 209.274 240.028 212.025C240.377 212.324 240.825 212.583 241.044 212.974C240.224 215.226 239.357 217.469 238.562 219.73C234.927 220.419 231.274 221.077 227.731 222.066C228.091 223.969 228.733 226.045 227.769 227.889C227.433 227.849 226.976 227.799 226.919 227.45C226.783 225.85 225.874 224.395 224.94 223.033C220.42 224.542 215.91 226.102 211.648 228.087C208.213 229.704 204.73 231.459 202.185 234.046C221.091 234.051 239.999 234.051 258.906 234.046C257.694 236.304 256.398 238.531 255.164 240.779C242.785 243.336 230.429 246.07 218.42 249.704C213.38 251.27 208.344 252.993 203.875 255.546C203.412 255.846 203.145 256.398 203.481 256.848C204.175 257.752 205.442 258.125 206.504 258.64C208.814 259.724 211.374 260.314 213.889 260.947C215.692 261.399 217.495 261.848 219.295 262.304C219.146 265.01 219.12 267.722 218.927 270.424C217.452 270.424 215.948 270.202 214.465 270.092C211.56 269.799 208.611 269.603 205.809 268.847C201.993 267.824 198.556 265.88 195.864 263.38C192.908 260.684 190.771 257.411 189.24 253.982C187.149 249.23 185.984 243.409 185.58 238.361C185.395 238.339 185.35 239.344 185.171 239.328C184.648 241.554 184.032 243.529 183.154 245.676C182.988 246.186 182.547 246.575 182.157 246.97C179.343 249.742 176.341 252.376 173.203 254.881C169.991 257.418 166.642 259.847 163.024 261.962C159.219 264.175 155.103 266.165 150.551 267.001C148.104 267.431 145.323 267.513 143.18 266.258C140.786 264.871 139.619 262.46 138.988 260.149C136.806 261.552 134.608 262.936 132.361 264.264C130.334 265.418 128.314 266.638 125.992 267.333C120.186 269.161 114.145 270.359 108.135 271.595C103.825 272.423 99.5132 273.252 95.1736 273.96C99.1934 272.025 103.276 270.177 107.279 268.216C118.139 262.949 128.838 257.413 139.05 251.279C140.442 245.624 142.691 239.936 147.047 235.398C147.102 235.385 147.213 235.358 147.268 235.346C146.921 235.972 146.755 236.658 146.397 237.281C143.772 241.179 141.906 245.487 141.245 249.95C145.894 247.084 150.431 244.08 154.701 240.813C157.339 238.808 159.817 236.654 162.08 234.343C162.703 233.689 163.549 233.127 163.784 232.268C163.887 231.708 163.829 231.363 163.454 230.204C160.814 224.019 157.068 216.301 154.58 210.862C155.432 208.115 156.22 205.352 157.081 202.606C158.227 203.246 158.974 204.252 159.79 205.161C161.456 207.235 163.023 209.368 164.43 211.577C165.217 212.791 165.366 214.202 165.655 215.543C164.525 214.682 163.738 213.514 162.485 212.777C162.539 212.973 162.615 213.164 162.714 213.351C164.697 216.67 166.054 220.246 166.933 223.887C167.476 226.05 167.712 228.268 167.56 230.479C167.447 232.876 167.062 235.332 165.764 237.494C164.611 239.415 163.061 241.136 161.441 242.787C155.951 248.249 149.516 252.956 142.981 257.489C142.99 257.753 143.343 257.825 143.554 257.969C145.893 259.207 148.819 259.082 151.431 258.697C153.4 258.31 155.427 258.016 157.23 257.199C161.961 255.1 166.086 252.174 170.068 249.192C175.289 245.164 180.206 240.858 184.897 236.389C183.33 231.674 181.702 226.975 180.045 222.284C179.144 219.834 178.307 217.362 177.23 214.964C175.444 211.8 173.728 208.599 172.171 205.352C172.8 202.871 173.591 200.418 174.262 197.943M221.844 210.702C221.272 210.894 220.793 211.429 221.032 211.966C221.121 212.373 221.645 212.513 221.92 212.815C223.067 213.944 224.152 215.119 225.149 216.347C227.637 215.581 230.164 214.915 232.675 214.211C230.805 212.697 228.729 211.256 226.234 210.572C224.814 210.163 223.226 210.213 221.844 210.702ZM276.894 207.442C284.557 203.419 292.178 199.341 299.852 195.334C299.635 196.584 299.212 197.954 298.001 198.778C290.571 202.706 283.099 206.581 275.672 210.516C275.99 209.468 276.49 208.467 276.894 207.442ZM238.232 192.278C238.941 191.93 239.98 191.955 240.46 192.59C241.12 193.435 241.297 194.541 240.94 195.511C240.264 197.435 238.773 199.07 237.147 200.493C235.17 202.13 232.803 203.639 230.006 204.008C230.475 203.516 231.16 203.243 231.764 202.89C233.497 201.9 235.165 200.809 236.621 199.534C237.385 198.785 238.211 197.975 238.348 196.95C238.401 196.09 237.481 195.356 236.543 195.213C235.176 195.418 234.324 196.42 233.319 197.124C233.079 196.502 233.72 196.065 234.099 195.609C235.304 194.368 236.518 193.036 238.232 192.278ZM138.424 188.112C140.767 186.887 143.064 185.593 145.437 184.408C145.203 185.673 144.719 187.137 143.27 187.766C138.087 190.455 132.961 193.224 127.759 195.885C128.34 194.878 128.912 193.86 129.551 192.879C132.484 191.26 135.471 189.705 138.424 188.112ZM364.146 180.236C367.562 182.185 370.379 184.967 371.904 188.225C373.406 191.383 373.393 194.967 372.184 198.193C372.019 198.566 371.668 198.846 371.374 199.145C371.9 196.955 372.08 194.657 371.349 192.485C370.314 189.043 367.354 186.185 363.755 184.455C363.934 183.052 363.974 181.639 364.146 180.236ZM281.829 181.65C282.416 181.042 282.988 180.423 283.631 179.858C283.019 181.07 283.486 182.388 283.777 183.617C284.107 184.742 284.424 185.878 284.925 186.959C285.55 187.652 286.646 188.005 287.655 187.979C288.125 187.977 288.347 187.511 288.185 187.178C287.691 185.823 287.05 184.507 286.32 183.232C286.46 182.295 286.871 181.395 287.159 180.482C287.508 180.509 287.864 180.534 288.221 180.564C288.455 182.224 289.479 183.695 290.283 185.186C290.249 186.386 290.15 187.593 289.877 188.774C289.67 189.596 289.311 190.548 288.33 190.919C287.495 191.194 286.517 191.347 285.674 191.015C284.435 190.55 283.555 189.633 282.794 188.717C282.312 190.013 281.088 191.04 279.586 191.495C278.351 191.977 276.85 191.472 276.067 190.591C275.169 189.551 275.011 188.212 274.996 186.962C275.047 185.762 275.158 184.526 275.768 183.424C276.164 182.684 276.776 181.957 277.716 181.68C276.462 183.437 276.323 185.689 277.249 187.576C277.516 188.11 278.065 188.628 278.797 188.645C279.91 188.597 280.774 187.918 281.511 187.274C281.494 185.742 281.574 184.214 281.576 182.682C281.629 182.337 281.505 181.921 281.829 181.65ZM96.2058 169.218C99.0013 170.753 101.227 173.089 102.291 175.776C103.155 177.948 103.094 180.338 102.324 182.522C102.221 182.877 101.906 183.143 101.624 183.403C102.192 181.342 102.131 179.107 101.113 177.151C100.076 175.131 98.1743 173.466 95.9216 172.388C96.0437 171.333 96.1047 170.274 96.2057 169.218L96.2058 169.218ZM186.428 166.924C187.061 166.259 187.627 165.494 188.468 165.009C187.913 165.724 188.146 166.607 188.279 167.395C188.59 168.866 189.053 170.314 189.6 171.735C189.772 172.329 190.494 172.583 191.089 172.811C191.628 172.982 192.275 173.141 192.822 172.913C193.167 172.656 193.005 172.217 192.883 171.9C192.357 170.655 191.819 169.407 191.079 168.24L191.928 165.526C192.299 165.551 192.669 165.573 193.045 165.592C193.216 167.263 194.299 168.722 195.079 170.222C195.052 171.5 194.943 172.789 194.617 174.041C194.432 174.78 194.03 175.559 193.207 175.93C192.263 176.247 191.137 176.395 190.214 175.955C189.143 175.434 188.287 174.64 187.616 173.774C187.078 175.102 185.784 176.154 184.213 176.588C183.132 176.932 181.846 176.565 181.108 175.839C180.168 175.011 179.915 173.813 179.825 172.709C179.751 171.29 179.886 169.826 180.54 168.505C180.915 167.738 181.584 167.062 182.469 166.689C181.6 168.152 181.155 169.853 181.641 171.468C181.855 172.315 182.213 173.396 183.325 173.661C184.526 173.792 185.481 173.018 186.256 172.347C186.4 170.543 186.31 168.727 186.428 166.924ZM279.442 164.638C283.487 163.155 287.532 161.657 291.67 160.373C291.544 161.17 291.203 162.079 290.288 162.459C284.413 164.585 278.515 166.675 272.764 169.035C271.622 169.57 270.448 170.12 269.559 170.943C270.194 171.537 271.144 171.76 272.003 172.028C271.992 172.603 271.994 173.18 271.994 173.757C270.778 173.508 269.561 173.131 268.618 172.413C268.673 171.594 268.656 170.77 268.789 169.957C268.925 169.219 269.815 168.871 270.459 168.47C273.309 166.965 276.395 165.819 279.442 164.638ZM97.4144 157.459L97.5806 157.6C97.2145 157.994 97.4019 158.515 97.4606 158.968C97.6605 159.943 97.9465 160.91 98.3419 161.842C98.4723 162.26 98.9834 162.459 99.4188 162.598C99.7995 162.666 100.416 162.825 100.574 162.393C100.313 161.382 99.6861 160.48 99.2989 159.51C99.4819 158.95 99.5682 158.349 99.8815 157.83C100.092 157.834 100.306 157.841 100.521 157.853C100.731 158.941 101.398 159.899 101.878 160.903C101.85 161.935 101.812 163.007 101.354 163.977C101.068 164.633 100.157 164.808 99.425 164.799C98.3542 164.671 97.6517 163.904 97.0186 163.237C96.6105 164.211 95.5671 164.972 94.3513 165.106C93.3289 165.151 92.4624 164.451 92.1931 163.654C91.8376 162.601 91.8775 161.468 92.1659 160.407C92.391 159.665 92.8306 158.863 93.7351 158.578C93.022 159.599 92.8454 160.856 93.245 161.996C93.4007 162.467 93.6888 163.057 94.3451 163.125C95.0729 163.135 95.6136 162.665 96.1331 162.299C96.2677 161.133 96.1057 159.956 96.2761 158.791C96.5392 158.29 97.0652 157.919 97.4144 157.459ZM130.935 155.45C131.381 155.551 131.703 155.86 132.071 156.079C134.301 157.636 136.158 159.66 137.044 162.012C137.873 164.141 137.822 166.479 137.084 168.621C136.983 168.991 136.705 169.291 136.461 169.601C136.442 169.562 136.404 169.482 136.383 169.443C136.922 167.463 136.842 165.332 135.902 163.449C134.886 161.386 132.982 159.678 130.685 158.602C130.744 157.55 130.841 156.498 130.935 155.45ZM151.164 153.613C151.73 152.445 153.213 151.464 154.759 151.689C155.531 151.83 156.072 152.406 156.347 153.003C156.888 154.233 156.968 155.574 156.779 156.869C157.727 157.832 158.758 158.807 159.155 160.056C159.892 161.698 159.233 163.451 158.606 165.036C157.805 167.133 156.282 169.038 155.998 171.267C155.899 171.818 156.149 172.419 156.814 172.61C157.883 172.342 158.049 171.265 158.268 170.48C158.602 170.413 159.126 170.382 159.242 170.741C159.425 171.732 158.911 172.686 158.497 173.59C158.123 174.277 157.603 175.088 156.642 175.242C155.874 175.361 155.287 174.79 154.98 174.268C154.105 172.763 154.38 170.978 155.112 169.475C156.252 167.08 157.758 164.669 157.62 162.012C157.624 160.883 157.064 159.806 156.17 158.984C154.835 162.042 152.674 164.799 150.186 167.267C148.899 168.622 147.05 169.45 145.285 170.275C143.705 170.969 142.103 171.652 140.42 172.153C143.659 170.177 146.766 168.018 149.454 165.509C151.671 163.399 153.712 161.021 154.534 158.239L154.479 158.082C153.281 157.426 151.84 156.846 151.215 155.687C150.95 155.027 150.984 154.285 151.164 153.613ZM152.366 153.949C152.056 154.118 152.269 154.442 152.521 154.553C153.276 154.926 154.053 155.272 154.837 155.6C154.818 154.929 154.961 154.097 154.269 153.619C153.67 153.194 152.849 153.562 152.366 153.949ZM280.424 152.456C280.828 151.859 281.453 151.122 282.378 151.226C283.36 151.413 284.322 151.86 284.925 152.559C285.233 152.996 285.487 153.663 284.942 154.048C284.656 154.286 284.452 154.687 284.099 154.806C283.605 154.259 283.222 153.282 282.222 153.31C280.971 153.701 280.279 154.776 279.904 155.798C279.128 157.905 278.97 160.127 278.726 162.31C278.478 162.528 278.144 162.649 277.845 162.804C277.845 160.591 277.239 158.221 275.369 156.586C274.469 156.492 273.398 156.401 272.894 155.661C272.279 154.717 271.838 153.553 272.263 152.49C273.216 152.332 273.988 152.938 274.635 153.441C276.348 154.773 277.454 156.536 278.453 158.289C278.876 156.299 279.301 154.262 280.424 152.456ZM36.8507 153.175C37.3725 152.394 37.9488 151.589 38.8533 151.088C37.4103 153.727 35.7316 156.349 35.1953 159.261C35.027 160.213 35.0207 161.304 35.7401 162.105C36.4133 162.824 37.6375 162.836 38.5903 162.585C39.6569 162.223 40.1533 161.253 40.6518 160.445C40.8748 160.45 40.9211 160.673 41.0282 160.807C40.4666 162.677 39.9239 164.707 38.26 166.125C36.7139 167.51 33.6639 166.797 32.9047 165.076C32.3536 163.838 32.5365 162.469 32.8605 161.207C33.6558 158.364 35.1617 155.705 36.8507 153.175ZM181.927 150.209C184.699 151.816 186.973 154.134 188.033 156.859C188.559 158.289 188.753 159.814 188.549 161.304C188.397 162.39 188.193 163.517 187.476 164.452C187.375 164.167 187.442 163.874 187.505 163.59C187.983 161.435 187.577 159.124 186.258 157.226C185.17 155.644 183.561 154.318 181.668 153.442C181.704 152.362 181.828 151.286 181.927 150.209ZM220.617 148.758C221.71 149.239 222.426 150.118 223.13 150.942C224.849 153.075 226.309 155.47 227.619 157.797C227.747 158.104 227.754 158.486 227.844 159.509C227.053 158.78 226.128 158.075 224.952 157.861C224.744 158.252 224.746 158.673 224.923 159.072C226.45 163.043 228.177 166.959 229.656 170.944C230.598 173.543 231.425 176.212 231.456 178.947C231.521 181.487 231.01 184.022 230.127 186.444C229.239 188.719 227.878 190.975 225.608 192.476C223.74 193.762 221.248 194.295 218.871 194.106C215.971 193.922 213.223 192.737 211.21 190.975C210.135 190.106 209.263 189.081 208.444 188.036L208.758 187.974C208.671 187.982 208.501 188 208.415 188.009C206.597 185.413 205.249 182.579 204.471 179.631C204.54 179.25 203.682 179.282 203.768 179.662C202.66 183.961 200.891 188.201 197.962 191.864C196.252 193.968 194.04 195.846 191.294 196.957C188.303 198.154 184.78 198.232 181.631 197.465C178.467 196.691 175.96 194.573 174.601 192.077C172.632 188.499 172.331 184.45 172.548 180.561C172.971 177.419 173.896 174.346 174.801 171.284C175.106 170.343 175.377 169.33 174.984 168.374C174.857 168.319 174.607 168.208 174.483 168.153C174.06 168.387 173.625 168.617 173.295 168.945C170.976 171.113 169.66 173.884 168.608 176.632C167.813 178.845 167.192 181.105 166.776 183.393C166.223 187.009 165.375 190.668 163.412 193.945C162.348 195.688 160.749 197.497 158.341 197.897C156.109 198.15 153.724 197.556 152.089 196.222C150.087 194.635 149.21 192.328 148.682 190.11C147.84 186.128 148.101 182.046 148.629 178.048C148.982 175.584 149.487 173.137 150.116 170.714C150.322 170.698 150.53 170.685 150.743 170.674C149.91 174.76 149.336 178.908 149.481 183.061C149.611 185.427 149.939 187.838 151.073 190.028C151.843 191.527 153.149 192.924 154.964 193.569C156.679 194.161 158.795 194.268 160.4 193.386C162.06 192.462 162.838 190.812 163.454 189.284C164.668 185.901 165.204 182.383 166.157 178.947C167.156 175.459 168.593 172.066 170.356 168.802C171.365 166.899 172.478 165.029 173.906 163.324C175.175 161.806 176.34 160.141 178.141 159.026C178.275 159.032 178.54 159.044 178.675 159.049C179.005 160.192 178.616 161.376 178.557 162.534C178.446 164.445 177.625 166.241 177.154 168.094C176.569 170.212 176.069 172.349 175.568 174.483C174.794 177.539 174.243 180.763 175.217 183.838C175.953 186.249 177.916 188.376 180.566 189.474C182.289 190.243 184.222 190.634 186.161 190.692C188.887 190.926 191.738 190.648 194.176 189.535C197.114 188.237 199.195 185.883 200.543 183.369C201.862 180.856 202.615 178.135 202.834 175.394C202.863 169.95 202.417 164.401 200.221 159.238C199.941 158.525 199.575 157.785 199.735 157.02C200.082 154.921 200.909 152.901 201.879 150.955C201.94 150.732 202.255 150.716 202.445 150.602C203.482 153.229 204.489 155.873 205.118 158.596C205.911 162.136 206.368 165.722 206.837 169.299C207.209 171.853 207.318 174.446 208.074 176.949C208.7 179.027 209.676 181.06 211.21 182.78C213.074 184.975 215.871 186.605 218.982 187.228C221.645 187.752 224.489 187.078 226.73 185.817C227.907 185.136 229.13 183.987 228.738 182.687C225.009 174.37 221.942 165.854 218.894 157.346C218.692 156.644 218.308 155.971 218.244 155.249C218.64 152.999 219.57 150.841 220.617 148.757L220.617 148.758ZM116.411 155.748C117.686 153.308 118.958 150.867 120.26 148.438C122.778 153.349 124.827 158.431 126.362 163.626C126.543 164.676 126.177 165.732 126.222 166.787C125.342 165.464 124.333 164.207 123.411 162.905C123.649 165.288 124.08 167.657 124.341 170.04C126.104 184.111 127.654 198.202 128.977 212.309C130.494 211.378 131.651 210.043 132.301 208.557C133.148 206.884 134.063 205.221 135.302 203.726C135.767 203.19 136.381 202.501 137.282 202.667C137.791 202.692 138.033 203.156 138.083 203.532C138.308 204.857 137.126 206 137.328 207.314C137.383 208.393 138.377 209.319 139.56 209.645C141.604 210.271 143.825 209.991 145.922 209.74C146.869 209.563 148.051 209.411 148.512 208.579C148.02 207.241 147.473 205.918 146.852 204.62C147.738 202.706 148.749 200.834 149.673 198.931C149.911 198.482 150.07 197.986 150.462 197.608C151.133 199.784 151.301 202.041 151.572 204.27C151.852 207.874 151.171 211.615 149.05 214.786C147.908 216.409 146.202 217.883 143.977 218.352C142.037 218.746 139.906 218.566 138.148 217.746C136.111 216.763 134.715 215.037 133.989 213.177C132.887 215.324 131.437 217.354 129.593 219.099C129.807 221.885 130.047 224.668 130.211 227.456C130.333 230.564 129.393 233.61 128.305 236.552C127.778 237.816 127.258 239.088 126.606 240.311C120.809 248.343 113.146 255.457 103.951 260.769C97.9331 264.273 91.2756 266.991 84.2858 268.776C80.6321 269.675 76.8965 270.408 73.0954 270.643C69.1723 270.689 65.1907 270.26 61.5239 269.04C58.0826 267.902 55.0767 265.83 53.1476 263.152C46.3703 263.745 39.5528 264.072 32.7375 264.086C38.8164 262.239 44.8346 260.243 50.7515 258.046C49.1719 251.514 50.478 244.779 52.4533 238.417C53.6628 234.56 55.0923 230.73 56.8445 227.028C58.1723 224.066 58.6953 222.704 61.2311 219.21C58.5743 223.185 58.1874 224.821 56.9997 227.639C55.4011 231.977 54.2517 236.456 53.9131 240.995C53.5787 245.984 54.0014 251.223 56.7443 255.739C64.0369 252.848 71.1362 249.599 77.9434 245.954C83.7152 242.819 89.2917 239.399 94.359 235.478C96.7612 233.595 99.096 231.63 101.069 229.412C101.652 228.83 101.368 228.001 101.178 227.34C100.739 226.229 100.24 225.135 99.7333 224.048C96.2836 225.232 92.6088 226.043 88.8669 226.029C86.8265 226.079 84.7272 225.749 82.9685 224.838C81.4603 224.049 80.3413 222.755 79.8869 221.303C79.2581 219.399 79.5314 217.389 79.908 215.469C80.5054 212.689 81.7128 209.909 84.0077 207.805C85.619 206.335 87.7519 205.205 90.1164 204.909C92.79 204.919 95.3077 206.025 97.2157 207.56C99.6452 209.513 101.303 212.045 102.578 214.643C104.957 213.468 107.243 212.077 109.015 210.271C110.752 208.739 112.54 207.175 114.759 206.146C115.312 205.877 116.267 205.579 116.635 206.209C117.037 207.143 116.654 208.17 116.385 209.099C115.67 210.454 116.534 211.995 117.603 213.031C119.09 214.454 121.534 214.591 123.606 214.272C121.436 195.361 119.229 176.452 117.056 157.541C117.012 156.906 116.688 156.327 116.411 155.747M86.8482 213.816C85.7838 214.204 84.4523 214.78 84.2945 215.866C84.5448 216.692 85.6891 216.947 86.5495 217.124C89.3156 217.578 92.1907 217.569 94.955 217.109C94.9045 217.025 94.7994 216.86 94.7468 216.776C93.3059 215.392 91.4695 214.201 89.286 213.851C88.4846 213.75 87.6327 213.555 86.8482 213.816ZM104.961 221.54C105.247 225.394 104.61 229.29 103.178 232.951C102.625 234.222 102.164 235.569 101.121 236.628C95.99 242.441 89.3808 247.19 82.4163 251.359C76.2108 255.023 69.6588 258.274 62.81 260.99C63.9796 261.473 65.2079 261.862 66.4848 262.092C69.9051 262.736 73.437 262.39 76.8632 261.971C87.5908 260.608 97.692 256.639 106.392 251.214C112.16 247.618 117.414 243.429 121.999 238.766C123.533 237.118 125.42 235.508 125.794 233.34C125.428 229.661 124.944 225.991 124.54 222.314C122.155 223.126 119.202 223.316 117.037 221.961C114.41 220.28 113.411 217.41 112.997 214.76C110.731 217.341 108.066 219.68 104.961 221.54ZM236.291 150.512C236.886 149.674 237.454 148.748 238.47 148.22C236.993 150.727 235.487 153.277 234.822 156.045C234.564 157.242 234.475 158.699 235.634 159.595C236.307 159.874 237.084 160.04 237.818 159.82C239.16 159.565 239.787 158.381 240.31 157.422C240.456 157.807 240.552 158.206 240.397 158.602C239.919 160.268 239.284 162.012 237.847 163.273C236.229 164.742 232.967 163.897 232.351 162.014C231.81 160.305 232.305 158.515 232.898 156.864C233.76 154.652 234.955 152.543 236.291 150.512ZM65.8445 155.207C67.279 152.849 68.6569 150.469 70.0557 148.097C72.3275 153.128 74.126 158.313 75.3735 163.595C75.4555 164.556 75.1464 165.514 75.0454 166.469C74.019 165.292 73.4026 163.875 72.3572 162.7C72.9273 166.667 73.1314 170.667 73.5036 174.651C73.918 179.802 74.3092 184.956 74.6984 190.109C77.8137 189.667 80.6132 188.107 82.494 185.978C85.3231 182.789 86.5789 178.777 86.9344 174.85C86.9112 169.806 86.5937 164.674 84.7236 159.845C84.3934 158.857 83.7855 157.901 83.798 156.854C84.021 154.909 84.7887 153.044 85.6007 151.227C85.8069 150.802 85.9414 150.262 86.5473 150.135C87.4708 152.555 88.4256 154.973 89.0399 157.466C89.9927 161.371 90.4534 165.348 90.9835 169.307C91.3369 171.703 91.442 174.139 92.1573 176.488C93.0849 179.646 94.9655 182.723 98.0619 184.731C100.39 186.229 103.365 187.254 106.327 186.857C108.415 186.538 110.529 185.833 111.991 184.481C112.652 183.882 113.106 183.005 112.824 182.185C109.833 175.656 107.391 168.96 104.922 162.281C104.078 159.957 103.249 157.628 102.423 155.301C102.187 154.711 102.494 154.103 102.608 153.52C103.128 151.74 103.801 149.976 104.73 148.322C105.742 148.734 106.398 149.549 107.059 150.285C109.051 152.718 110.639 155.367 112.099 158.051C112.029 158.393 111.962 158.738 111.907 159.084C111.167 158.304 110.216 157.605 109.026 157.407C108.836 157.789 108.845 158.206 109.009 158.593C110.334 161.99 111.747 165.362 113.096 168.752C114.242 171.775 115.62 176.169 115.542 178.046C115.301 180.683 114.865 184.18 113.924 186.637C112.889 188.822 111.087 191.431 108.632 192.631C106.527 193.705 103.927 193.87 101.554 193.474C98.4302 192.945 95.7507 191.233 93.8319 189.125C91.1352 186.154 89.4798 182.584 88.4997 178.954C88.3525 178.958 88.058 178.968 87.9107 178.974C86.9935 182.626 85.599 186.223 83.445 189.491C81.514 192.414 78.8447 195.176 75.1634 196.57C75.807 205.613 76.4802 214.654 76.9408 223.705C77.0081 228.168 76.7956 232.63 76.5348 237.088C76.5307 237.694 76.2319 238.256 76.009 238.823C75.2874 240.758 74.5239 242.682 73.712 244.593C73.5837 244.913 73.4175 245.225 73.1798 245.499C73.0747 236.978 72.2227 228.477 71.5434 219.978C70.927 212.494 70.3108 205.01 69.7113 197.526C66.7643 197.47 63.729 196.739 61.5541 194.985C59.0195 193.007 57.7257 190.156 57.1073 187.342C56.5604 184.849 56.4447 182.294 56.6741 179.77C57.1789 176.475 58.1738 173.253 59.1225 170.032C59.2529 169.456 59.3476 168.852 59.1941 168.272C59.1351 168.062 59.0783 167.812 58.7902 167.753C58.3485 167.705 58.0203 167.985 57.7216 168.212C56.0683 169.567 54.9871 171.32 54.0427 173.074C52.2526 176.7 51.1988 180.564 50.6245 184.457C50.149 187.023 49.4549 189.578 48.3191 191.998C47.4167 193.795 46.2914 195.646 44.3351 196.773C42.6649 197.748 40.4562 197.629 38.6286 197.069C36.3147 196.342 34.6677 194.583 33.7927 192.679C32.2718 189.405 32.1729 185.821 32.2656 182.349C32.4823 178.279 33.1638 174.232 34.2134 170.259C34.4111 170.223 34.611 170.189 34.8087 170.157C33.9589 174.715 33.2669 179.337 33.6686 183.958C33.8642 185.96 34.285 187.982 35.2947 189.815C36.153 191.381 37.6591 192.788 39.6531 193.3C41.3485 193.742 43.3574 193.706 44.8002 192.74C46.3694 191.675 47.1119 190.012 47.6861 188.432C49.0365 184.428 49.5435 180.258 50.9423 176.265C52.299 172.351 54.1438 168.554 56.4262 164.963C57.7493 163.101 59.1796 161.281 60.8414 159.622C61.3336 159.187 61.8279 158.568 62.6105 158.561C63.0395 158.795 62.8861 159.306 62.8965 159.672C62.6777 161.473 62.6567 163.315 62.0214 165.057C60.8602 168.633 60.0778 172.287 59.2258 175.921C58.6348 178.751 58.477 181.773 59.7538 184.487C60.694 186.557 62.6502 188.237 65.0103 189.172C66.2934 189.685 67.6797 189.999 69.0827 190.17C68.3086 180.074 67.4294 169.983 66.628 159.886C66.4449 158.315 66.5669 156.694 65.8454 155.207L65.8445 155.207ZM378.317 155.246C379.582 152.703 380.751 150.13 382.03 147.592C383.99 153.069 385.905 158.561 387.503 164.121C387.743 165.078 388.056 166.029 388.174 167.004C388.008 167.776 387.73 168.534 387.707 169.328C387.009 168.186 386.306 167.049 385.597 165.914C386.489 180.139 387.566 194.357 388.769 208.567C389.142 213.137 389.686 217.699 389.884 222.278C390.246 230.761 389.897 239.427 386.857 247.582C385.715 250.529 384.262 253.402 382.415 256.084C379.933 259.551 376.247 262.284 372.194 264.385C364.975 268.067 356.712 269.982 348.462 271.165C347.995 271.309 347.806 270.849 347.541 270.64C354.901 267.636 361.977 264.105 368.582 260.025C371.884 257.928 375.118 255.718 377.896 253.122C381.081 250.082 383.483 246.421 384.575 242.448C385.772 238.453 385.359 234.297 385.097 230.231C384.407 220.858 383.553 211.495 382.825 202.124C381.704 187.684 380.574 173.241 379.451 158.801C379.213 157.786 378.466 156.916 378.121 155.928C378.029 155.686 378.243 155.468 378.317 155.245L378.317 155.246ZM359.674 157.725C363.976 153.896 368.147 149.963 372.281 146C372.464 149.561 370.303 152.835 367.891 155.617C366.599 157.234 364.777 158.445 363.139 159.789C362.354 160.392 361.593 161.013 360.84 161.64C361.056 162.593 361.387 163.531 361.509 164.497C361.446 165.394 361.275 166.286 361.149 167.179C360.221 165.945 359.559 164.568 358.499 163.413C358.966 167.452 359.193 171.509 359.51 175.558C360.339 187.449 361.099 199.341 361.814 211.237C361.772 211.544 362.089 211.738 362.293 211.956C365.354 214.841 368.402 217.737 371.267 220.764C373.517 223.304 375.648 225.928 377.455 228.716C379.822 232.364 381.696 236.316 382.249 240.481C382.55 243.101 382.4 245.804 381.395 248.313C379.623 241.439 376.362 235.189 372.562 230.854C369.365 227.161 365.867 223.543 362.337 220.076C362.583 224.316 362.829 228.558 363.021 232.801C363.208 238.273 362.97 243.748 362.697 249.215C362.699 250.251 362.148 251.198 361.864 252.188C361.041 254.41 360.379 256.685 359.325 258.839C359.157 253.789 358.955 248.734 358.595 243.689C357.949 234.654 357.27 225.622 356.66 216.586C356.569 215.875 356.616 215.149 356.456 214.45C354.134 212.148 351.626 209.983 349.201 207.761C344.929 203.977 340.612 200.229 336.132 196.623C336.981 206.062 337.861 215.498 338.656 224.94C338.996 229.227 339.447 233.514 339.495 237.814C339.556 241.553 339.512 245.294 339.413 249.032C339.426 251.391 339.464 253.829 338.477 256.072C337.017 258.85 334.398 261.17 331.241 262.602C328.776 263.711 325.988 264.301 323.199 264.321C321.317 264.357 319.445 263.932 317.781 263.203C314.868 261.81 312.789 259.435 311.452 256.878C310.535 255.118 309.876 253.258 309.521 251.355C309.314 250.522 309.096 249.559 308.218 249.039C307.52 248.639 306.685 248.959 306.01 249.226C304.367 249.968 302.785 250.863 301.597 252.095C297.726 256.043 295.885 261.082 294.733 266.042C294.169 268.182 293.275 270.309 291.706 272.076C290.568 273.335 288.943 274.54 287.019 274.572C285.513 274.598 284.06 274.054 282.716 273.49C279.741 272.16 277.678 269.721 276.45 267.117C276.121 266.421 275.72 265.842 275.076 263.377C274.382 260.719 274.142 256.682 274.411 252.573C274.542 252.175 274.056 252.031 273.789 251.81C272.729 251.039 272.295 249.816 272.31 248.664C272.28 244.436 273.004 240.135 275.103 236.267C276.805 233.077 279.354 230.292 281.836 227.517C282.07 227.217 282.482 226.978 282.596 226.629C281.05 225.133 279.417 223.699 277.768 222.285C276.828 221.363 275.684 220.614 274.758 219.683C271.279 216.486 267.859 213.244 264.44 210C264.767 214.745 265.015 219.494 265.294 224.242C265.507 228.64 265.866 233.035 265.793 237.438C265.808 241.363 265.599 245.284 265.41 249.204C265.4 250.181 264.935 251.09 264.64 252.021C263.812 254.316 263.063 256.638 262.057 258.885C261.87 257.027 261.984 255.156 261.845 253.297C261.464 244.019 260.608 234.762 260 225.494C259.482 218.404 259.026 211.309 258.475 204.222C256.197 201.826 253.793 199.506 251.54 197.086C248.902 194.265 246.266 191.424 244.058 188.345C240.888 183.509 237.329 178.813 232.935 174.705C232.684 174.505 232.762 174.207 232.764 173.952C232.916 171.293 233.036 168.634 233.191 165.976C236.319 167.702 239.302 169.616 242.169 171.643C244.391 173.268 246.505 175.01 248.303 176.98C249.231 177.911 250.087 179.099 249.776 180.37C248.72 180.015 247.628 179.732 246.629 179.272C246.227 179.084 245.79 178.965 245.34 178.908C245.274 179.652 245.872 180.238 246.32 180.823C249.578 184.869 252.977 188.83 256.465 192.735C256.913 193.236 257.407 193.714 257.752 194.278C257.531 189.698 257.119 185.124 256.826 180.547C256.332 173.479 255.825 166.412 255.331 159.343C255.24 158.287 255.301 157.198 254.801 156.205C254.559 155.809 254.916 155.447 255.114 155.104C256.311 153.143 257.468 151.162 258.604 149.171C258.658 149.032 258.921 148.674 259.001 149.018C261.153 153.76 262.828 158.656 264.064 163.626C264.445 164.815 263.976 166.028 263.835 167.217C263.032 165.871 262.121 164.575 261.229 163.269C262.371 175.682 263.034 188.126 263.89 200.552C264.468 201.376 265.356 202.029 266.063 202.781C272.889 209.454 279.975 215.929 287.058 222.404C292.321 217.45 297.636 212.536 302.97 207.637C303.202 207.455 303.36 207.232 303.278 206.956C301.673 191.504 300.066 176.051 298.458 160.6C298.254 159.038 298.309 157.429 297.617 155.945C298.932 153.551 300.373 151.204 301.679 148.804C302.394 150.064 302.886 151.411 303.45 152.727C304.775 156.006 305.922 159.339 306.828 162.718C307.018 163.479 307.329 164.248 307.205 165.036C307.11 165.747 306.994 166.457 306.904 167.17C306.025 165.912 305.181 164.635 304.296 163.379C305.553 175.824 306.829 191.494 307.97 203.041C313.5 198.061 318.986 193.043 324.542 188.084C325.152 187.495 325.846 186.969 326.408 186.345C323.705 183.266 321.182 180.075 318.666 176.885C317.792 175.835 317.112 174.683 316.277 173.611C314.519 171.3 312.722 168.962 310.307 167.099C310.097 164.096 309.983 161.086 309.832 158.078C315.503 162.279 321.264 166.398 326.775 170.753C327.304 171.154 327.724 171.646 328.019 172.195C327.522 167.497 327.068 162.796 326.599 158.096C326.542 157.664 326.559 157.215 326.346 156.812C326.205 156.398 325.816 155.956 326.132 155.533C327.436 153.26 328.666 150.956 329.956 148.675C332.213 153.204 333.971 157.909 335.364 162.68C335.507 163.351 335.852 164.009 335.747 164.701C335.644 165.464 335.583 166.231 335.48 166.994C334.683 165.87 333.886 164.747 333.097 163.622C332.96 163.443 332.832 163.265 332.716 163.083C333.435 168.46 333.911 173.857 334.472 179.246C338.627 175.509 342.893 171.862 347.19 168.24C349.104 166.705 351.09 165.232 352.924 163.626C352.752 161.539 352.653 159.449 352.459 157.365C352.423 156.703 351.706 156.036 352.209 155.403C353.566 153.217 354.851 150.997 356.117 148.77C357.6 151.659 358.602 154.712 359.674 157.723M334.929 183.915C334.994 184.759 335.078 185.602 335.169 186.444C336.519 187.858 337.891 189.26 339.317 190.62C344.754 195.824 350.379 200.882 355.896 206.024C355.042 193.308 354.083 180.594 353.235 167.876C347.011 173.122 340.907 178.468 334.929 183.915ZM323.185 172.381C324.929 174.692 326.744 176.97 328.679 179.168C328.523 177.13 328.29 175.094 328.08 173.059C327.974 173.239 327.861 173.419 327.772 173.603C326.458 172.79 324.853 172.151 323.185 172.381ZM312.007 205.275C310.879 206.4 309.623 207.438 308.563 208.607C308.814 212.213 309.356 215.809 309.691 219.414C309.855 225.371 308.687 231.694 304.367 236.57C304.491 235.794 304.432 235.01 304.443 234.228C304.436 231.555 304.569 228.882 304.554 226.208C304.54 223.645 304.594 223.821 304.476 218.52C304.427 216.307 304.104 214.551 303.894 212.994C302.385 214.346 300.949 215.754 299.445 217.11C296.485 219.913 293.339 222.566 290.305 225.31C293.387 228.124 295.32 231.828 295.818 235.639C296.321 239.692 295.131 244.002 291.992 247.153C289.224 249.916 285.253 251.66 281.128 252.462C279.193 252.826 277.125 253.075 275.204 252.526C275.444 254.227 275.745 255.923 276.147 257.603C276.837 260.435 277.735 263.293 279.516 265.788C280.469 267.063 281.776 268.299 283.572 268.673C285.493 269.069 287.447 268.252 288.797 267.132C290 266.218 290.558 264.891 291.065 263.628C292.59 259.911 293.105 255.916 295.122 252.341C296.538 249.504 298.337 246.75 300.932 244.564C302.279 243.377 303.827 242.364 305.449 241.461C306.566 240.894 307.918 240.422 309.233 240.753C310.484 241.066 311.328 242.002 311.906 242.945C313.223 245.069 313.566 247.498 314.632 249.705C315.413 251.53 316.447 253.382 318.286 254.613C320.143 255.856 322.592 256.237 324.908 256.153C328.951 256.007 335.599 253.214 335.936 252.425C336.286 251.606 335.363 245.407 335.002 241.902C333.242 224.779 331.559 207.65 329.839 190.526C329.78 190.055 329.281 189.736 329.035 189.336C323.256 194.57 317.655 199.941 312.007 205.275M285.663 229.842C284.454 231.026 283.312 232.262 282.174 233.496C280.009 235.971 277.843 238.474 276.24 241.249C275.836 241.953 275.468 242.833 275.933 243.582C276.482 244.348 277.655 244.462 278.619 244.464C282.872 244.32 286.839 242.706 290.293 240.691C291.448 240.208 292.533 239.138 292.098 237.977C291.526 236.417 290.442 235.04 289.382 233.69C288.282 232.363 287.123 231.067 285.888 229.828C285.832 229.831 285.72 229.838 285.663 229.842Z" fill="black"/>
</svg>
