<svg xmlns="http://www.w3.org/2000/svg" width="420" height="420" fill="none"><path fill="#EEE" d="M373.333 58.333H46.667C20.895 58.333 0 79.228 0 105v210c0 25.772 20.895 46.667 46.667 46.667h326.666C399.105 361.667 420 340.772 420 315V105c0-25.772-20.895-46.667-46.667-46.667Z"/><path fill="#CE1124" d="M245 58.333h-70V175H0v70h175v116.667h70V245h175v-70H245V58.333Z"/><path fill="#EBEAE3" fill-rule="evenodd" stroke="#000" stroke-width=".326" d="M231.63 152.102c1.925-3.012.774-4.958-2.138-5.559 0 0-9.292 2.979-19.327 3.306-10.035.327-21.958-2.524-21.958-2.524-2.138 1.342-1.616 4.526-.555 6.513 0 0 10.505 3.49 22.464 3.148 7.596-.218 14.794-2.156 18.832-3.441 2.319-.738 2.683-1.409 2.682-1.443Z" clip-rule="evenodd"/><path fill="#fff" stroke="#161111" d="m209.627 283.941-19.286-40.066L146 247.206l25.055-36.735L146 173.736l44.341 3.331 19.286-40.066 19.286 40.066 44.34-3.331-25.055 36.735 25.055 36.735-44.34-3.331-19.286 40.066Z"/><path fill="#C00" stroke="#161111" d="M221.62 229.472c1.555-1.529 4.054-3.223 5.442-6.905 1.3-3.445 1.93-9.77 3.116-12.976 1.549-5.495 4.671-10.853.956-10.486-3.538.349-4.682 3.767-6.022 6.268-.621.932-1.222 3.146-1.492 4.28-.168.705-.191 1.486-.859 1.816.969-8.347-1.355-14.575-2.145-26.948-.332-5.19-1.18-10.404-3.877-10.443-2.03-.028-2.371 2.659-2.687 4.667 0-2.835.104-8.819-3.288-8.819-4.121 0-2.867 8.352-3.42 12.582-.095-1.496-.148-4.719-.581-6.802-.164-.787-.504-1.394-.905-1.745-.254-.223-.61-.343-1.136-.343-3.715 0-3.631 5.208-3.512 10.405.051.55.002 3.038.047 4.667 0-2.835.025-8.367-2.922-8.128-2.465.2-2.65 6.428-2.761 9.736.161 3.307-.985 11.019-1.386 13.211-.109 1.554-.722 3.575-.982 5.741-.558 4.662-.027 10.12.59 12.913 1.227 4.41 4.43 6.389 4.269 9.382-.161 2.992 0 8.269 0 10.631 0 2.363 2.052 2.49 6.301 1.575 6.946-1.496 10.742 1.496 16.478-.709-.728-6.536.937-11.207.776-13.57Z"/><path fill="#C00" d="M217.742 217.874c1.437-3.967 3.252-5.525 5.003-6.39Z"/><path stroke="#161111" d="M217.742 217.874c1.437-3.967 3.252-5.525 5.003-6.39"/><path fill="#C00" d="M220.351 231.551c.126-.812.634-1.456 1.342-2.151Z"/><path stroke="#161111" d="M220.351 231.551c.126-.812.634-1.456 1.342-2.151"/><path fill="#C00" d="M201.255 187.681c.099 3.509.311 10.257.311 11.87Z"/><path stroke="#161111" d="M201.255 187.681c.099 3.509.311 10.257.311 11.87"/><path fill="#C00" d="M214.104 178.091c-.199 1.866.026 3.376-.016 5.281-.028 1.269.179 3.602.343 6.429-.042 1.023.32 6.119-.011 8.009"/><path stroke="#161111" d="M214.104 178.091c-.199 1.866.026 3.376-.016 5.281-.028 1.269.179 3.602.343 6.429-.042 1.023.32 6.119-.011 8.009"/><path fill="#C00" d="M207.34 181.588c.067.693.047 1.53.08 2.463.16 4.493.057 11.189.191 14.45"/><path stroke="#161111" d="M207.34 181.588c.067.693.047 1.53.08 2.463.16 4.493.057 11.189.191 14.45"/><path fill="#B02320" fill-rule="evenodd" stroke="#000" stroke-width=".815" d="M209.339 136.863c24.227 3.994 23.362 5.125 23.362 5.125l6.323-18.902s.665-3.727-1.065-5.99c-1.731-2.263-6.59-.999-6.59-.999s-.665-3.061-2.795-3.794c-2.13-.732-10.05 2.862-12.513 3.661-2.463.799-3.727 1.597-7.188 1.531-3.461-.067-9.651-3.128-10.783-3.727-1.131-.599-2.795-1.198-4.326-1.132-1.531.067-3.128.466-3.927 1.531-.799 1.065-.799 2.396-.799 2.396s-1.264-.799-3.261-.799-3.128.267-4.06 1.332c-.932 1.065-2.13 4.06-2.13 4.06l2.263 5.125.133 7.055 4.726 7.454 22.63-3.927Z" clip-rule="evenodd"/><path fill="#EBEAE3" fill-rule="evenodd" stroke="#000" stroke-width=".326" d="M231.923 147.543s1.22 1.454 1.173 1.97c-.047.517-.563.986-.563.986s.375.375.281.938c-.093.563-.844.61-.844.61s.141.516-.329.751c-.469.234-2.392.657-2.392.657s-9.384-2.675-19.424-2.675c-10.041 0-21.864 3.238-21.864 3.238s-1.22-.423-1.267-1.22c-.047-.798.141-1.361.141-1.361s-.668.07-.845-.516c-.247-.819.094-1.454.094-1.454s-.465.149.047-.939c.375-.797.938-1.079.938-1.079s10.51-3.753 22.474-3.8c11.964-.047 22.38 3.8 22.38 3.894Z" clip-rule="evenodd"/><path stroke="#000" stroke-width=".717" d="M182.27 123.906s-.401-1.362.48-2.564c.882-1.202 2.484-1.122 2.965-.882.481.241.401.802 1.042.962.641.16 1.122-.321 1.122-.321"/><path fill="#FC0" fill-opacity=".941" fill-rule="evenodd" stroke="#000" stroke-width=".75" d="m240.767 127.095-3.639 7.529-1.43.251s-.873-.525-3.363-.352c-1.782.126-2.309.578-2.309.578l3.237-7.504s.253 1.612.628 2.56c.477 1.204 2.283 2.334 2.283 2.334s.251-1.441-.225-3.188c-.527-1.932-1.757-4.542-1.757-4.542l6.575 2.334Z" clip-rule="evenodd"/><path fill="#121116" stroke="#121116" stroke-linejoin="round" stroke-width=".731" d="M211.507 103.697h-4.073v17.308h4.073v-17.308Z"/><path fill="#F6CA1F" fill-rule="evenodd" stroke="#000" stroke-width=".619" d="m182.476 135.618 2.616 5.597s11.132-4.339 24.271-4.258c19.709.121 25.305 4.075 25.305 4.075l2.92-6.934-2.19 1.277-2.25 1.399-2.555.973-3.103-.243-2.737-2.007-1.399-2.92-2.311 2.129-4.076.912-4.015-1.034-3.528-4.44s-2.628 4.936-5.961 5.231c-4.806.426-7.604-2.312-7.604-2.312s-1.787 4.015-4.745 4.745c-4.684 1.156-8.577-2.19-8.638-2.19Z" clip-rule="evenodd"/><path fill="#EEE" d="M227.406 101.5c0 1.176-.939 2.13-2.099 2.133-1.16.002-2.103-.948-2.107-2.124-.005-1.176.931-2.134 2.091-2.14 1.16-.008 2.106.939 2.115 2.115"/><path stroke="#1E1E1E" stroke-linejoin="round" stroke-width=".731" d="M227.406 101.5c0 1.176-.939 2.13-2.099 2.133-1.16.002-2.103-.948-2.107-2.124-.005-1.176.931-2.134 2.091-2.14 1.16-.008 2.106.939 2.115 2.115"/><path fill="#A3AFB8" fill-rule="evenodd" d="M224.323 102.595s1.7-.029 1.873-.72c.173-.692-.115-1.585-.115-1.585s.807.893.576 1.585c-.23.691-.456.87-1.037 1.008-.393.094-.98-.057-1.297-.288Z" clip-rule="evenodd"/><path fill="#EEE" d="M222.296 103.889c.001 1.176-.939 2.13-2.099 2.132-1.16.003-2.102-.948-2.107-2.124-.005-1.175.931-2.133 2.091-2.14 1.16-.007 2.106.939 2.115 2.115"/><path stroke="#1E1E1E" stroke-linejoin="round" stroke-width=".731" d="M222.296 103.889c.001 1.176-.939 2.13-2.099 2.132-1.16.003-2.102-.948-2.107-2.124-.005-1.175.931-2.133 2.091-2.14 1.16-.007 2.106.939 2.115 2.115"/><path fill="#A3AFB8" fill-rule="evenodd" d="M219.214 104.984s1.699-.029 1.872-.72c.173-.692-.115-1.585-.115-1.585s.807.893.576 1.585c-.23.691-.456.87-1.037 1.008-.393.094-.979-.058-1.296-.288Z" clip-rule="evenodd"/><path fill="#EEE" d="M233.339 100.1c0 1.175-.939 2.129-2.099 2.132-1.16.002-2.103-.948-2.108-2.124-.004-1.176.931-2.133 2.091-2.14 1.16-.007 2.107.939 2.116 2.115"/><path stroke="#1E1E1E" stroke-linejoin="round" stroke-width=".731" d="M233.339 100.1c0 1.175-.939 2.129-2.099 2.132-1.16.002-2.103-.948-2.108-2.124-.004-1.176.931-2.133 2.091-2.14 1.16-.007 2.107.939 2.116 2.115"/><path fill="#A3AFB8" fill-rule="evenodd" d="M230.256 101.194s1.7-.028 1.873-.72c.173-.691-.116-1.585-.116-1.585s.807.894.577 1.585c-.231.692-.457.87-1.038 1.009-.393.093-.979-.058-1.296-.289Z" clip-rule="evenodd"/><path fill="#EEE" d="M240.021 101.444c0 1.176-.939 2.13-2.099 2.132-1.16.003-2.103-.947-2.107-2.123-.005-1.176.93-2.134 2.09-2.14 1.16-.008 2.107.939 2.116 2.115"/><path stroke="#1E1E1E" stroke-linejoin="round" stroke-width=".731" d="M240.021 101.444c0 1.176-.939 2.13-2.099 2.132-1.16.003-2.103-.947-2.107-2.123-.005-1.176.93-2.134 2.09-2.14 1.16-.008 2.107.939 2.116 2.115"/><path fill="#A3AFB8" fill-rule="evenodd" d="M236.938 102.539s1.7-.029 1.873-.72c.173-.692-.115-1.585-.115-1.585s.807.893.576 1.585c-.23.691-.457.87-1.037 1.008-.394.094-.98-.057-1.297-.288Z" clip-rule="evenodd"/><path fill="#EEE" d="M245.114 105.641c.001 1.176-.939 2.13-2.099 2.132-1.16.003-2.102-.948-2.107-2.123-.005-1.176.931-2.134 2.091-2.141 1.16-.007 2.106.94 2.115 2.115"/><path stroke="#1E1E1E" stroke-linejoin="round" stroke-width=".731" d="M245.114 105.641c.001 1.176-.939 2.13-2.099 2.132-1.16.003-2.102-.948-2.107-2.123-.005-1.176.931-2.134 2.091-2.141 1.16-.007 2.106.94 2.115 2.115"/><path fill="#A3AFB8" fill-rule="evenodd" d="M242.032 106.736s1.699-.029 1.872-.72c.173-.692-.115-1.585-.115-1.585s.807.893.576 1.585c-.23.691-.456.87-1.037 1.008-.393.094-.979-.058-1.296-.288Z" clip-rule="evenodd"/><path fill="#EEE" d="M247.315 112.527c0 1.176-.939 2.13-2.099 2.132-1.16.003-2.103-.947-2.108-2.123-.004-1.176.931-2.134 2.091-2.141 1.16-.007 2.107.94 2.116 2.116"/><path stroke="#1E1E1E" stroke-linejoin="round" stroke-width=".731" d="M247.315 112.527c0 1.176-.939 2.13-2.099 2.132-1.16.003-2.103-.947-2.108-2.123-.004-1.176.931-2.134 2.091-2.141 1.16-.007 2.107.94 2.116 2.116"/><path fill="#A3AFB8" fill-rule="evenodd" d="M244.232 113.622s1.7-.029 1.873-.72c.173-.692-.116-1.585-.116-1.585s.807.893.577 1.585c-.231.691-.457.87-1.038 1.008-.393.094-.979-.057-1.296-.288Z" clip-rule="evenodd"/><path fill="#EEE" d="M246.5 119.495c0 1.176-.939 2.13-2.099 2.132-1.16.002-2.103-.948-2.108-2.124-.004-1.176.931-2.133 2.091-2.14 1.16-.007 2.107.939 2.116 2.115"/><path stroke="#1E1E1E" stroke-linejoin="round" stroke-width=".731" d="M246.5 119.495c0 1.176-.939 2.13-2.099 2.132-1.16.002-2.103-.948-2.108-2.124-.004-1.176.931-2.133 2.091-2.14 1.16-.007 2.107.939 2.116 2.115"/><path fill="#A3AFB8" fill-rule="evenodd" d="M243.417 120.59s1.7-.029 1.873-.721c.173-.691-.115-1.584-.115-1.584s.806.893.576 1.584c-.231.692-.457.871-1.037 1.009-.394.094-.98-.058-1.297-.288Z" clip-rule="evenodd"/><path fill="#EEE" d="M243.403 125.607c0 1.176-.939 2.13-2.099 2.132-1.16.002-2.103-.948-2.107-2.124-.005-1.176.93-2.133 2.09-2.14 1.16-.007 2.107.939 2.116 2.115"/><path stroke="#1E1E1E" stroke-linejoin="round" stroke-width=".731" d="M243.403 125.607c0 1.176-.939 2.13-2.099 2.132-1.16.002-2.103-.948-2.107-2.124-.005-1.176.93-2.133 2.09-2.14 1.16-.007 2.107.939 2.116 2.115"/><path fill="#A3AFB8" fill-rule="evenodd" d="M240.32 126.702s1.7-.029 1.873-.721c.173-.691-.115-1.584-.115-1.584s.807.893.576 1.584c-.23.692-.457.871-1.037 1.009-.394.093-.98-.058-1.297-.288Z" clip-rule="evenodd"/><path fill="#EEE" d="M217.325 105.723c0 1.176-.939 2.129-2.099 2.132-1.16.002-2.103-.948-2.107-2.124-.005-1.176.931-2.133 2.091-2.14 1.16-.007 2.106.939 2.115 2.115"/><path stroke="#1E1E1E" stroke-linejoin="round" stroke-width=".731" d="M217.325 105.723c0 1.176-.939 2.129-2.099 2.132-1.16.002-2.103-.948-2.107-2.124-.005-1.176.931-2.133 2.091-2.14 1.16-.007 2.106.939 2.115 2.115"/><path fill="#A3AFB8" fill-rule="evenodd" d="M214.243 106.817s1.699-.028 1.872-.72c.173-.691-.115-1.584-.115-1.584s.807.893.576 1.584c-.23.692-.456.87-1.037 1.009-.393.093-.98-.058-1.296-.289Z" clip-rule="evenodd"/><path fill="#EEE" d="M210.971 105.177a1.77 1.77 0 0 1-1.755 1.783 1.77 1.77 0 0 1-1.763-1.776 1.772 1.772 0 0 1 1.749-1.79 1.772 1.772 0 0 1 1.769 1.769"/><path stroke="#1E1E1E" stroke-linejoin="round" stroke-width=".731" d="M210.971 105.177a1.77 1.77 0 0 1-1.755 1.783 1.77 1.77 0 0 1-1.763-1.776 1.772 1.772 0 0 1 1.749-1.79 1.772 1.772 0 0 1 1.769 1.769"/><path fill="#A3AFB8" fill-rule="evenodd" d="M208.393 106.093s1.421-.024 1.566-.603c.144-.578-.096-1.325-.096-1.325s.674.747.481 1.325c-.192.579-.381.728-.867.844-.329.078-.819-.048-1.084-.241Z" clip-rule="evenodd"/><path fill="#EEE" d="M210.991 107.393a1.77 1.77 0 0 1-1.755 1.783 1.77 1.77 0 0 1-1.762-1.776 1.771 1.771 0 0 1 1.748-1.79 1.77 1.77 0 0 1 1.769 1.769"/><path stroke="#1E1E1E" stroke-linejoin="round" stroke-width=".731" d="M210.991 107.393a1.77 1.77 0 0 1-1.755 1.783 1.77 1.77 0 0 1-1.762-1.776 1.771 1.771 0 0 1 1.748-1.79 1.77 1.77 0 0 1 1.769 1.769"/><path fill="#A3AFB8" fill-rule="evenodd" d="M208.413 108.309s1.422-.024 1.566-.603c.145-.578-.096-1.325-.096-1.325s.675.747.482 1.325c-.193.579-.382.728-.868.844-.329.078-.819-.048-1.084-.241Z" clip-rule="evenodd"/><path fill="#EEE" d="M211.114 110.653c0 .983-.786 1.781-1.756 1.783-.97.002-1.758-.793-1.762-1.776a1.771 1.771 0 0 1 1.748-1.79 1.77 1.77 0 0 1 1.769 1.769"/><path stroke="#1E1E1E" stroke-linejoin="round" stroke-width=".731" d="M211.114 110.653c0 .983-.786 1.781-1.756 1.783-.97.002-1.758-.793-1.762-1.776a1.771 1.771 0 0 1 1.748-1.79 1.77 1.77 0 0 1 1.769 1.769"/><path fill="#A3AFB8" fill-rule="evenodd" d="M208.535 111.569s1.422-.025 1.567-.603c.144-.578-.097-1.325-.097-1.325s.675.747.482 1.325c-.193.578-.382.728-.867.843-.329.079-.82-.048-1.085-.24Z" clip-rule="evenodd"/><path fill="#EEE" d="M211.296 114.116c0 1.064-.85 1.927-1.899 1.929-1.049.002-1.902-.858-1.906-1.921-.004-1.063.842-1.929 1.891-1.936 1.049-.006 1.905.85 1.914 1.913"/><path stroke="#1E1E1E" stroke-linejoin="round" stroke-width=".731" d="M211.296 114.116c0 1.064-.85 1.927-1.899 1.929-1.049.002-1.902-.858-1.906-1.921-.004-1.063.842-1.929 1.891-1.936 1.049-.006 1.905.85 1.914 1.913"/><path fill="#A3AFB8" fill-rule="evenodd" d="M208.507 115.107s1.538-.027 1.694-.652c.157-.625-.104-1.433-.104-1.433s.73.808.521 1.433c-.208.625-.413.787-.938.912-.356.085-.886-.052-1.173-.26Z" clip-rule="evenodd"/><path fill="#EEE" d="M211.499 118.761c0 1.176-.939 2.13-2.099 2.133-1.16.002-2.103-.948-2.108-2.124-.004-1.176.931-2.134 2.091-2.141 1.16-.006 2.106.94 2.116 2.116"/><path stroke="#1E1E1E" stroke-linejoin="round" stroke-width=".731" d="M211.499 118.761c0 1.176-.939 2.13-2.099 2.133-1.16.002-2.103-.948-2.108-2.124-.004-1.176.931-2.134 2.091-2.141 1.16-.006 2.106.94 2.116 2.116"/><path fill="#A3AFB8" fill-rule="evenodd" d="M208.416 119.856s1.7-.028 1.873-.72c.172-.691-.116-1.585-.116-1.585s.807.894.577 1.585c-.231.692-.457.87-1.038 1.008-.393.094-.979-.057-1.296-.288Z" clip-rule="evenodd"/><path fill="#EEE" d="M211.288 128.294c0 1.105-.882 2.001-1.971 2.003-1.09.002-1.975-.89-1.98-1.995-.004-1.104.875-2.003 1.964-2.01 1.089-.006 1.978.882 1.987 1.987"/><path stroke="#1E1E1E" stroke-linejoin="round" stroke-width=".731" d="M211.288 128.294c0 1.105-.882 2.001-1.971 2.003-1.09.002-1.975-.89-1.98-1.995-.004-1.104.875-2.003 1.964-2.01 1.089-.006 1.978.882 1.987 1.987"/><path fill="#A3AFB8" fill-rule="evenodd" d="M208.393 129.323s1.596-.027 1.758-.677c.163-.649-.108-1.488-.108-1.488s.758.839.541 1.488c-.216.65-.428.817-.974.947-.369.088-.92-.054-1.217-.27Z" clip-rule="evenodd"/><path fill="#EEE" d="M205.597 105.666c0 1.176-.939 2.13-2.099 2.132-1.16.003-2.103-.948-2.108-2.123-.004-1.176.931-2.134 2.091-2.141 1.16-.007 2.107.939 2.116 2.115"/><path stroke="#1E1E1E" stroke-linejoin="round" stroke-width=".731" d="M205.597 105.666c0 1.176-.939 2.13-2.099 2.132-1.16.003-2.103-.948-2.108-2.123-.004-1.176.931-2.134 2.091-2.141 1.16-.007 2.107.939 2.116 2.115"/><path fill="#A3AFB8" fill-rule="evenodd" d="M202.514 106.761s1.7-.029 1.873-.72c.173-.692-.115-1.585-.115-1.585s.806.893.576 1.585c-.231.691-.457.87-1.037 1.008-.394.094-.98-.058-1.297-.288Z" clip-rule="evenodd"/><path fill="#EEE" d="M200.382 103.61c0 1.175-.939 2.129-2.099 2.132-1.16.002-2.103-.948-2.107-2.124-.005-1.176.931-2.134 2.091-2.14 1.16-.007 2.106.939 2.115 2.115"/><path stroke="#1E1E1E" stroke-linejoin="round" stroke-width=".731" d="M200.382 103.61c0 1.175-.939 2.129-2.099 2.132-1.16.002-2.103-.948-2.107-2.124-.005-1.176.931-2.134 2.091-2.14 1.16-.007 2.106.939 2.115 2.115"/><path fill="#A3AFB8" fill-rule="evenodd" d="M197.299 104.704s1.7-.028 1.873-.72c.173-.691-.115-1.585-.115-1.585s.807.894.576 1.585c-.23.692-.456.87-1.037 1.009-.394.093-.98-.058-1.297-.289Z" clip-rule="evenodd"/><path fill="#EEE" d="M195.388 101.259c0 1.176-.939 2.13-2.099 2.132-1.16.003-2.103-.947-2.108-2.123-.004-1.176.931-2.134 2.091-2.14 1.16-.008 2.107.939 2.116 2.115"/><path stroke="#1E1E1E" stroke-linejoin="round" stroke-width=".731" d="M195.388 101.259c0 1.176-.939 2.13-2.099 2.132-1.16.003-2.103-.947-2.108-2.123-.004-1.176.931-2.134 2.091-2.14 1.16-.008 2.107.939 2.116 2.115"/><path fill="#A3AFB8" fill-rule="evenodd" d="M192.305 102.354s1.7-.029 1.873-.72c.173-.692-.115-1.585-.115-1.585s.806.893.576 1.585c-.231.691-.457.87-1.037 1.008-.394.094-.98-.057-1.297-.288Z" clip-rule="evenodd"/><path fill="#EEE" d="M189.659 100.011c0 1.176-.939 2.13-2.099 2.132-1.16.002-2.103-.948-2.107-2.124-.005-1.176.931-2.133 2.09-2.14 1.16-.007 2.107.94 2.116 2.115"/><path stroke="#1E1E1E" stroke-linejoin="round" stroke-width=".731" d="M189.659 100.011c0 1.176-.939 2.13-2.099 2.132-1.16.002-2.103-.948-2.107-2.124-.005-1.176.931-2.133 2.09-2.14 1.16-.007 2.107.94 2.116 2.115"/><path fill="#A3AFB8" fill-rule="evenodd" d="M186.576 101.106s1.7-.029 1.873-.721c.173-.691-.115-1.584-.115-1.584s.807.893.576 1.584c-.23.692-.457.871-1.037 1.009-.394.093-.98-.058-1.297-.288Z" clip-rule="evenodd"/><path fill="#EEE" d="M182.902 101.627c0 1.175-.939 2.129-2.099 2.132-1.16.002-2.103-.948-2.107-2.124-.005-1.176.931-2.134 2.091-2.14 1.16-.007 2.106.939 2.115 2.115"/><path stroke="#1E1E1E" stroke-linejoin="round" stroke-width=".731" d="M182.902 101.627c0 1.175-.939 2.129-2.099 2.132-1.16.002-2.103-.948-2.107-2.124-.005-1.176.931-2.134 2.091-2.14 1.16-.007 2.106.939 2.115 2.115"/><path fill="#A3AFB8" fill-rule="evenodd" d="M179.819 102.721s1.7-.028 1.873-.72c.173-.691-.115-1.585-.115-1.585s.807.894.576 1.585c-.23.692-.456.87-1.037 1.009-.394.093-.98-.058-1.297-.289Z" clip-rule="evenodd"/><path fill="#EEE" d="M178.128 106.4c0 1.176-.939 2.13-2.099 2.133-1.16.002-2.103-.948-2.107-2.124-.005-1.176.931-2.134 2.091-2.141 1.16-.006 2.106.94 2.115 2.116"/><path stroke="#1E1E1E" stroke-linejoin="round" stroke-width=".731" d="M178.128 106.4c0 1.176-.939 2.13-2.099 2.133-1.16.002-2.103-.948-2.107-2.124-.005-1.176.931-2.134 2.091-2.141 1.16-.006 2.106.94 2.115 2.116"/><path fill="#A3AFB8" fill-rule="evenodd" d="M175.045 107.495s1.7-.028 1.873-.72c.173-.691-.115-1.585-.115-1.585s.807.894.576 1.585c-.23.692-.456.87-1.037 1.008-.393.094-.98-.057-1.297-.288Z" clip-rule="evenodd"/><path fill="#EEE" d="M176.145 113.084c0 1.176-.939 2.13-2.099 2.132-1.16.002-2.103-.948-2.107-2.124-.005-1.175.931-2.133 2.091-2.14 1.16-.007 2.106.939 2.115 2.115"/><path stroke="#1E1E1E" stroke-linejoin="round" stroke-width=".731" d="M176.145 113.084c0 1.176-.939 2.13-2.099 2.132-1.16.002-2.103-.948-2.107-2.124-.005-1.175.931-2.133 2.091-2.14 1.16-.007 2.106.939 2.115 2.115"/><path fill="#A3AFB8" fill-rule="evenodd" d="M173.062 114.179s1.7-.029 1.873-.72c.173-.692-.115-1.585-.115-1.585s.807.893.576 1.585c-.23.691-.456.87-1.037 1.008-.393.094-.98-.058-1.297-.288Z" clip-rule="evenodd"/><path fill="#EEE" d="M177.027 120.061c0 1.176-.94 2.13-2.1 2.132-1.159.003-2.102-.947-2.107-2.123-.005-1.176.931-2.134 2.091-2.141 1.16-.007 2.106.94 2.116 2.116"/><path stroke="#1E1E1E" stroke-linejoin="round" stroke-width=".731" d="M177.027 120.061c0 1.176-.94 2.13-2.1 2.132-1.159.003-2.102-.947-2.107-2.123-.005-1.176.931-2.134 2.091-2.141 1.16-.007 2.106.94 2.116 2.116"/><path fill="#A3AFB8" fill-rule="evenodd" d="M173.944 121.156s1.7-.029 1.873-.72c.172-.692-.116-1.585-.116-1.585s.807.893.577 1.585c-.231.691-.457.87-1.038 1.008-.393.094-.979-.057-1.296-.288Z" clip-rule="evenodd"/><path fill="#EEE" d="M180.258 126.378c0 1.176-.939 2.129-2.099 2.132-1.16.002-2.103-.948-2.107-2.124-.005-1.176.931-2.133 2.09-2.14 1.16-.007 2.107.939 2.116 2.115"/><path stroke="#1E1E1E" stroke-linejoin="round" stroke-width=".731" d="M180.258 126.378c0 1.176-.939 2.129-2.099 2.132-1.16.002-2.103-.948-2.107-2.124-.005-1.176.931-2.133 2.09-2.14 1.16-.007 2.107.939 2.116 2.115"/><path fill="#A3AFB8" fill-rule="evenodd" d="M177.175 127.473s1.7-.029 1.873-.721c.173-.691-.115-1.584-.115-1.584s.807.893.576 1.584c-.23.692-.457.87-1.037 1.009-.394.093-.98-.058-1.297-.288Z" clip-rule="evenodd"/><path fill="#EEE" d="M183.909 134.336c.305 1.135-.017 2.209-.72 2.4-.702.19-1.519-.574-1.826-1.709-.307-1.135.012-2.212.713-2.407.701-.195 1.519.565 1.829 1.699"/><path stroke="#1E1E1E" stroke-linejoin="round" stroke-width=".731" d="M183.909 134.336c.305 1.135-.017 2.209-.72 2.4-.702.19-1.519-.574-1.826-1.709-.307-1.135.012-2.212.713-2.407.701-.195 1.519.565 1.829 1.699"/><path fill="#A3AFB8" fill-rule="evenodd" d="M182.325 135.894s1.022-.304.948-1c-.074-.696-.48-1.512-.48-1.512s.72.732.759 1.437c.04.705-.051.915-.367 1.142-.214.155-.608.104-.86-.067Z" clip-rule="evenodd"/><path fill="#EEE" d="M238.231 134.742c-.281 1.141-1.082 1.926-1.789 1.754-.707-.172-1.053-1.236-.774-2.379.279-1.142 1.078-1.931 1.786-1.763.708.167 1.058 1.228.781 2.371"/><path stroke="#1E1E1E" stroke-linejoin="round" stroke-width=".731" d="M238.231 134.742c-.281 1.141-1.082 1.926-1.789 1.754-.707-.172-1.053-1.236-.774-2.379.279-1.142 1.078-1.931 1.786-1.763.708.167 1.058 1.228.781 2.371"/><path fill="#A3AFB8" fill-rule="evenodd" d="M236.092 135.341s1.042.228 1.313-.418c.271-.645.309-1.556.309-1.556s.278.989-.028 1.626c-.307.636-.487.776-.874.823-.262.031-.582-.203-.72-.475Z" clip-rule="evenodd"/><path fill="#B3A192" fill-rule="evenodd" stroke="#000" stroke-width=".731" d="m207.578 94.103.152 3.562s-4.223.371-4.396.758c-.82 1.839.986 4.32.986 4.32s1.419-1.061 5.001-1.061c3.411 0 5.154.834 5.154.834s.909-1.44.909-2.501-.379-2.122-.379-2.122-1.743-.228-2.273-.228h-1.516l-.152-3.637-3.486.075Z" clip-rule="evenodd"/><path fill="#F0DDCB" d="M213.601 99.63c0 .399-.337.723-.754.724-.417.001-.756-.322-.757-.722-.002-.399.334-.724.751-.727.417-.002.757.32.76.719"/><path stroke="#121116" stroke-linejoin="round" stroke-width=".373" d="M213.601 99.63c0 .399-.337.723-.754.724-.417.001-.756-.322-.757-.722-.002-.399.334-.724.751-.727.417-.002.757.32.76.719"/><path fill="#F0DDCB" d="M215.342 100.017c0 .417-.352.755-.787.756-.435.001-.789-.336-.79-.753-.002-.416.348-.756.783-.758.435-.003.79.332.794.749"/><path stroke="#121116" stroke-linejoin="round" stroke-width=".373" d="M215.342 100.017c0 .417-.352.755-.787.756-.435.001-.789-.336-.79-.753-.002-.416.348-.756.783-.758.435-.003.79.332.794.749"/><path fill="#F0DDCB" d="M211.858 99.602c0 .399-.337.723-.754.724-.417.001-.756-.322-.757-.721-.002-.4.334-.725.751-.727.416-.003.757.319.76.718"/><path stroke="#121116" stroke-linejoin="round" stroke-width=".373" d="M211.858 99.602c0 .399-.337.723-.754.724-.417.001-.756-.322-.757-.721-.002-.4.334-.725.751-.727.416-.003.757.319.76.718"/><path fill="#F0DDCB" d="M208.365 99.64c0 .417-.351.754-.785.755-.434.001-.786-.335-.788-.75-.002-.417.348-.755.781-.758.434-.002.788.332.792.748"/><path stroke="#121116" stroke-linejoin="round" stroke-width=".373" d="M208.365 99.64c0 .417-.351.754-.785.755-.434.001-.786-.335-.788-.75-.002-.417.348-.755.781-.758.434-.002.788.332.792.748"/><path fill="#F0DDCB" d="M206.426 99.77c0 .416-.351.753-.785.754-.434.001-.786-.335-.788-.75-.002-.416.348-.755.781-.757.434-.003.788.332.792.747"/><path stroke="#121116" stroke-linejoin="round" stroke-width=".373" d="M206.426 99.77c0 .416-.351.753-.785.754-.434.001-.786-.335-.788-.75-.002-.416.348-.755.781-.757.434-.003.788.332.792.747"/><path fill="#F0DDCB" d="M209.985 97.59a.65.65 0 0 1-.662.636c-.366 0-.664-.283-.665-.634a.649.649 0 0 1 .659-.638.651.651 0 0 1 .668.63"/><path stroke="#121116" stroke-linejoin="round" stroke-width=".373" d="M209.985 97.59a.65.65 0 0 1-.662.636c-.366 0-.664-.283-.665-.634a.649.649 0 0 1 .659-.638.651.651 0 0 1 .668.63"/><path fill="#F0DDCB" d="M209.985 94.634a.65.65 0 0 1-.662.636c-.366 0-.664-.283-.665-.633a.649.649 0 0 1 .659-.639.651.651 0 0 1 .668.631"/><path stroke="#121116" stroke-linejoin="round" stroke-width=".373" d="M209.985 94.634a.65.65 0 0 1-.662.636c-.366 0-.664-.283-.665-.633a.649.649 0 0 1 .659-.639.651.651 0 0 1 .668.631"/><path fill="#F0DDCB" d="M209.985 96.225a.65.65 0 0 1-.662.637c-.366 0-.664-.283-.665-.634a.649.649 0 0 1 .659-.638.65.65 0 0 1 .668.63"/><path stroke="#121116" stroke-linejoin="round" stroke-width=".373" d="M209.985 96.225a.65.65 0 0 1-.662.637c-.366 0-.664-.283-.665-.634a.649.649 0 0 1 .659-.638.65.65 0 0 1 .668.63"/><path fill="#F0DDCB" d="M204.46 100.298c.001.401-.338.727-.757.728-.418.001-.759-.323-.76-.725-.002-.4.335-.728.754-.73.418-.002.76.32.763.722"/><path stroke="#121116" stroke-linejoin="round" stroke-width=".373" d="M204.46 100.298c.001.401-.338.727-.757.728-.418.001-.759-.323-.76-.725-.002-.4.335-.728.754-.73.418-.002.76.32.763.722"/><path fill="#916C68" d="M210.155 99.446c0 .44-.372.795-.832.796-.46.001-.833-.354-.835-.793-.002-.438.369-.796.828-.798.46-.003.835.35.839.79"/><path stroke="#4D3126" stroke-linejoin="round" stroke-width=".373" d="M210.155 99.446c0 .44-.372.795-.832.796-.46.001-.833-.354-.835-.793-.002-.438.369-.796.828-.798.46-.003.835.35.839.79"/><path fill="#EEE" d="M210.916 88.877c0 .87-.695 1.576-1.554 1.578a1.567 1.567 0 0 1-1.559-1.572 1.567 1.567 0 0 1 1.547-1.584 1.567 1.567 0 0 1 1.566 1.566"/><path stroke="#1E1E1E" stroke-linejoin="round" stroke-width=".731" d="M210.916 88.877c0 .87-.695 1.576-1.554 1.578a1.567 1.567 0 0 1-1.559-1.572 1.567 1.567 0 0 1 1.547-1.584 1.567 1.567 0 0 1 1.566 1.566"/><path fill="#A3AFB8" fill-rule="evenodd" d="M208.634 89.687s1.258-.02 1.386-.533c.128-.511-.085-1.172-.085-1.172s.597.66.426 1.172c-.17.512-.337.644-.767.747-.291.069-.725-.043-.96-.214Z" clip-rule="evenodd"/><path fill="#FC0" fill-rule="evenodd" stroke="#000" stroke-width=".326" d="M184.606 141.806s1.389 1.296 1.759 2.453c.371 1.158.926 4.26.926 4.26s14.537-4.028 21.666-3.704c7.129.324 23.564 3.935 23.564 3.935s.278-1.759.602-3.611c.324-1.852 1.666-3.889 1.666-3.889s-15.693-4.907-25.6-4.444c-9.907.463-14.861 1.528-17.083 2.222-2.222.695-7.639 2.824-7.5 2.778Z" clip-rule="evenodd"/><path fill="#FC0" fill-rule="evenodd" stroke="#000" stroke-width=".731" d="M206.29 83.001h6.252s-1.543 1.067-1.857 2.084c-.27.875-.189 2.312-.189 2.312s1.705 0 2.463-.645c.758-.644 2.349-1.78 2.349-1.78v7.957s-1.534-1.484-2.463-1.97c-1.115-.585-2.235-.796-2.235-.796s0 1.288.53 2.046c.531.758 2.653 3.638 2.653 3.638l-8.943.34s2.121-2.236 2.994-3.864c.568-1.061.341-2.16.341-2.16s-1.516 0-2.274.53-2.084 2.122-2.084 2.122v-7.654s.568 1.478 1.819 2.046c1.25.568 2.425.265 2.425.265s.243-1.523-.265-2.463c-.524-.969-1.63-2.046-1.516-2.008Z" clip-rule="evenodd"/><path fill="#FC0" fill-rule="evenodd" stroke="#121116" stroke-width=".731" d="M205.8 108.251s-4.448-.053-8.253-2.304c-3.804-2.251-7.642-4.608-13.289-3.269-1.157.275-5.413 2.144-7.288 8.199-1.316 4.249.214 9.378 1.554 11.682 1.339 2.305 3.5 4.64 3.5 4.64l2.297-1.556s-5.851-4.959-5.154-11.39c.696-6.43 3.912-7.931 3.912-7.931s3.965-3.108 9.27-.16c5.306 2.947 10.504 4.287 10.504 4.287s4.876 1.179 5.305 1.125c.429-.054-2.465-3.376-2.358-3.323Z" clip-rule="evenodd"/><path fill="#FC0" fill-rule="evenodd" stroke="#000" stroke-width=".75" d="m181.199 132.371-2.363-4.645 7.089-2.771s-1.711 2.282-2.118 3.912c-.498 1.99-.326 3.667-.326 3.667s.652-.489 1.467-1.793c.618-.99 1.629-4.564 1.629-4.564l3.179 10.187c.024.027-1.634-1.634-2.8-1.831-1.315-.222-2.905.201-2.905.201l-1.874.571-.978-2.934Z" clip-rule="evenodd"/><path fill="#FC0" fill-rule="evenodd" stroke="#121116" stroke-width=".731" d="M213.816 108.168s4.448-.054 8.253-2.305c3.804-2.25 7.642-4.608 13.29-3.268 1.156.274 5.412 2.143 7.287 8.198 1.317 4.249-.214 9.378-1.554 11.683-1.339 2.304-2.25 3.66-2.25 3.66l-2.762-.992s5.066-4.544 4.369-10.974c-.696-6.431-3.912-7.931-3.912-7.931s-3.965-3.109-9.27-.161c-5.305 2.947-10.504 4.287-10.504 4.287s-4.876 1.179-5.305 1.125c-.428-.053 2.465-3.376 2.358-3.322Z" clip-rule="evenodd"/><path fill="#FC0" stroke="#121116" stroke-linejoin="round" stroke-width=".731" d="M213.376 103.766h-1.857v17.317h1.857v-17.317ZM207.465 103.69h-2.198v17.317h2.198V103.69Z"/><path fill="#FC0" d="M215.384 99.674c0 3.072-2.707 5.564-6.051 5.57-3.343.006-6.061-2.476-6.074-5.548-.014-3.072 2.683-5.574 6.026-5.592 3.344-.018 6.073 2.454 6.099 5.526"/><path stroke="#121116" stroke-linejoin="round" stroke-width=".731" d="M215.384 99.674c0 3.072-2.707 5.564-6.051 5.57-3.343.006-6.061-2.476-6.074-5.548-.014-3.072 2.683-5.574 6.026-5.592 3.344-.018 6.073 2.454 6.099 5.526"/><path fill="#FC0" fill-rule="evenodd" stroke="#000" stroke-width=".619" d="m203.943 120.938 10.426-.086s-1.222.73-2.274 2.596c-1.051 1.866-.901 3.046-.901 3.046s1.588-.021 2.703-.836c1.116-.816 2.36-2.339 2.36-2.339l-.043 9.611s-.751-1.223-1.995-1.952c-1.244-.73-3.003-.73-3.003-.73h-3.561s-1.629.097-2.36.58c-1.032.681-2.317 1.995-2.317 1.995l-.171-9.075s.514 1.588 2.188 2.231c1.673.644 2.617.558 2.617.558s0-2.038-.858-3.089c-.858-1.051-2.811-2.467-2.811-2.51Z" clip-rule="evenodd"/><path fill="#F6CA1F" fill-rule="evenodd" stroke="#000" stroke-width=".587" d="M209.753 128.484s1.525 3.56 3.299 5.131c1.032.914 4.137 1.603 5.54 1.245 3.154-.806 5.322-3.329 5.322-3.329s-.113 2.764 1.861 4.288c1.975 1.523 3.555 1.918 5.191 1.467 1.636-.452 6.262-3.893 6.262-3.893l.959.846s-2.653 2.577-5.442 3.944c-1.435.705-5.793.313-7.204-.815-1.41-1.129-2.248-3.862-2.248-3.862s-.868 1.757-2.73 2.378c-1.862.62-4.421.593-6.796-.101-1.599-.467-3.676-2.672-4.071-3.406-.395-.733-.282-1.128-.282-1.128s-1.172 3.358-3.611 4.274c-2.303.865-4.929.872-7.16.231-2.255-.649-2.431-1.91-2.431-1.91s-.169 3.554-5.077 4.57c-4.909 1.015-8.802-2.595-8.802-2.595l.677-1.016s2.765 3.103 6.996 2.821c4.232-.282 5.642-5.698 5.642-5.698s1.862 2.821 6.827 2.877c4.964.057 6.375-6.431 6.375-6.431l.903.112Z" clip-rule="evenodd"/><path fill="#FC0" fill-rule="evenodd" stroke="#000" stroke-width=".717" d="M197.52 130.555s.037-1.728.408-2.247c.527-.736 1.244-.766 1.609-.664.451.126.919.536.843 1.736-.077 1.201-.409 1.788-.051 2.248.357.459.408.766 1.098.663.689-.102.996-.332.842-.97-.153-.638-.357.051-.485-.485-.127-.536.667-2.853.536-4.29-.127-1.404-.663-2.528-1.736-2.809-1.008-.264-1.864-.255-2.809.434-.906.661-2.068 2.835-2.068 2.835l-.026 4.647 1.89-.102-.051-.996Z" clip-rule="evenodd"/><path fill="#FC0" fill-rule="evenodd" stroke="#000" stroke-width=".717" d="M194 131.806s-.723-1.57-1.271-1.898c-.776-.465-1.445-.207-1.74.032-.363.296-.629.858-.08 1.929.548 1.07 1.087 1.476.942 2.04-.145.564-.069.866-.742 1.047-.673.181-1.046.092-1.16-.554-.114-.647.348-.096.252-.639-.097-.542-1.749-2.35-2.202-3.72-.443-1.339-.399-2.584.473-3.269.819-.643 1.608-.977 2.749-.721 1.095.245 3.027 1.775 3.027 1.775l1.876 4.252-1.774.66-.35-.934Z" clip-rule="evenodd"/><path fill="#FC0" fill-rule="evenodd" stroke="#000" stroke-width=".717" d="M193.638 118.043s-1.838 3.089-1.43 5.464c.409 2.375 2.86 7.482 2.86 7.482l.026.69 1.323-.143-.302-.7s.661-6.114.256-8.044c-.302-1.434-2.707-4.724-2.733-4.749ZM196.575 132.189s.919 1.1 2.017 1.635c1.2.584 1.694.588 2.171.229.349-.262.23-1.379-.179-1.685-.409-.306-.872-.151-.945.153-.123.513-.29.479-.664.281-.545-.289-1.813-1.072-1.813-1.072l-.587.459ZM195.152 132.439s-.387 1.379-1.169 2.318c-.855 1.025-1.303 1.231-1.885 1.1-.427-.096-.776-1.163-.529-1.61.247-.447.734-.495.925-.248.322.418.461.318.72-.016.379-.488 1.214-1.722 1.214-1.722l.724.178Z" clip-rule="evenodd"/><path fill="#FC0" d="M198.655 131.329c.067.403-1.149.943-2.718 1.207-1.569.264-2.9.152-2.973-.249-.074-.402 1.137-.943 2.706-1.208 1.569-.266 2.904-.157 2.984.244"/><path stroke="#000" stroke-linejoin="round" stroke-width=".717" d="M198.655 131.329c.067.403-1.149.943-2.718 1.207-1.569.264-2.9.152-2.973-.249-.074-.402 1.137-.943 2.706-1.208 1.569-.266 2.904-.157 2.984.244"/><path fill="#FC0" fill-rule="evenodd" stroke="#000" stroke-width=".717" d="M225.649 131.247s.641-1.605 1.171-1.961c.751-.505 1.433-.282 1.739-.057.378.276.673.824.18 1.921-.492 1.097-1.009 1.531-.835 2.087.173.555.113.86.795 1.006.681.147 1.049.039 1.129-.613.081-.651-.352-.077-.284-.624.069-.547 1.625-2.438 2.007-3.83.373-1.36.265-2.6-.641-3.239-.852-.601-1.656-.893-2.783-.579-1.081.302-2.931 1.929-2.931 1.929l-1.654 4.344 1.806.567.301-.951Z" clip-rule="evenodd"/><path fill="#FC0" fill-rule="evenodd" stroke="#000" stroke-width=".717" d="M221.914 131.184s-.126-1.723-.524-2.223c-.564-.708-1.281-.701-1.641-.58-.444.15-.89.583-.752 1.778.139 1.195.5 1.764.167 2.241-.333.478-.368.787-1.062.72-.694-.066-1.012-.28-.892-.925.12-.646.36.032.46-.51.1-.542-.814-2.814-.757-4.256.055-1.41.532-2.559 1.589-2.895.993-.316 1.848-.351 2.827.288.939.614 2.212 2.724 2.212 2.724l.266 4.64-1.893-.004v-.998Z" clip-rule="evenodd"/><path fill="#FC0" fill-rule="evenodd" stroke="#000" stroke-width=".717" d="M226.402 118.168s-2.805 2.249-3.255 4.616c-.451 2.368.054 8.01.054 8.01l-.218.655 1.289.33-.037-.761s2.763-5.494 3.06-7.443c.221-1.45-.878-5.374-.893-5.407ZM224.191 132.446s.475 1.352 1.316 2.238c.919.969 1.38 1.145 1.952.977.42-.124.699-1.211.424-1.641-.275-.431-.764-.447-.939-.188-.295.437-.439.347-.72.03-.409-.462-1.322-1.64-1.322-1.64l-.711.224ZM222.771 132.181s-.846 1.156-1.908 1.761c-1.16.661-1.652.696-2.151.369-.366-.239-.318-1.361.07-1.693.388-.332.86-.207.952.092.156.504.321.459.681.237.526-.323 1.74-1.187 1.74-1.187l.616.421Z" clip-rule="evenodd"/><path fill="#FC0" d="M226.441 132.37c-.078.401-1.407.48-2.969.177-1.562-.303-2.769-.874-2.697-1.276.072-.402 1.395-.483 2.958-.182 1.562.301 2.774.872 2.709 1.275"/><path stroke="#000" stroke-linejoin="round" stroke-width=".717" d="M226.441 132.37c-.078.401-1.407.48-2.969.177-1.562-.303-2.769-.874-2.697-1.276.072-.402 1.395-.483 2.958-.182 1.562.301 2.774.872 2.709 1.275"/><path fill="#CCA715" fill-rule="evenodd" stroke="#000" stroke-width=".326" d="M184.058 141.64s.304 1.278 1.034.609 10.767-4.623 24.94-4.623c14.174 0 23.481 3.893 24.028 4.136.548.243.791.548 1.278 0 .486-.547-.487-1.399-.487-1.399s-9.855-4.197-25.244-4.136c-15.39.06-25.367 4.44-25.367 4.44s-.669.487-.182.973Z" clip-rule="evenodd"/><path fill="#000" fill-rule="evenodd" d="M202.031 147.536s.452-1.257 1.241-1.499c.63-.193 1.624.426 1.624.426s-1.197-.11-1.572.103c-.339.193-.441.764-.441.764s.257-.455 1.176-.411c.918.044 1.021.044 1.021.044s-1.558.117-1.918.566c-.36.448 1.47.654 1.47.654s-2.8.014-3.167-.155c-.368-.169-.603-.742-1.227-.566-.625.177-1.264.735-1.264.735s.713-1.197 1.161-1.205c.448-.007.713-.029 1.117.155.404.183.779.389.779.389ZM191.562 149.804s.212-1.319.943-1.703c.583-.306 1.675.118 1.675.118s-1.197.113-1.526.392c-.297.252-.292.833-.292.833s.168-.496 1.079-.622c.911-.127 1.012-.146 1.012-.146s-1.509.404-1.78.911c-.271.507 1.565.371 1.565.371s-2.748.532-3.141.434c-.392-.098-.729-.618-1.31-.329-.582.289-1.107.956-1.107.956s.479-1.309.919-1.399c.439-.09.695-.161 1.126-.055.431.106.837.239.837.239ZM210.859 147.071s.525-1.229 1.327-1.424c.64-.156 1.597.519 1.597.519s-1.19-.179-1.576.012c-.349.172-.485.737-.485.737s.284-.44 1.198-.342c.914.097 1.017.103 1.017.103s-1.562.027-1.947.453c-.386.427 1.429.738 1.429.738s-2.796-.147-3.153-.337c-.357-.19-.558-.776-1.192-.636-.634.14-1.304.66-1.304.66s.781-1.154 1.228-1.135c.448.018.714.012 1.107.218.392.207.754.434.754.434ZM219.699 148.071s.664-1.159 1.484-1.26c.653-.08 1.525.702 1.525.702s-1.161-.317-1.567-.172c-.366.131-.567.676-.567.676s.333-.404 1.23-.201c.896.204.998.221.998.221s-1.555-.155-1.987.224c-.433.379 1.333.9 1.333.9s-2.759-.473-3.092-.704c-.332-.23-.464-.835-1.11-.77-.645.065-1.372.503-1.372.503s.91-1.055 1.353-.984c.443.071.707.095 1.073.346s.699.519.699.519ZM228.477 149.638s.618-.883 1.284-.904c.531-.016 1.174.676 1.174.676s-.909-.339-1.246-.253c-.304.078-.505.502-.505.502s.297-.3 1.003-.071c.705.229.785.25.785.25s-1.237-.238-1.613.034c-.375.273 1.006.821 1.006.821s-2.183-.582-2.433-.791c-.25-.21-.312-.706-.836-.701-.523.005-1.139.304-1.139.304s.809-.781 1.159-.692c.351.089.561.128.837.357.276.229.524.468.524.468Z" clip-rule="evenodd"/><path fill="#0F6545" stroke="#000" stroke-linejoin="round" stroke-width=".435" d="M200.266 141.548c.21 1.047-1.022 2.177-2.752 2.524-1.729.346-3.302-.222-3.511-1.27-.21-1.047 1.021-2.178 2.751-2.524 1.73-.347 3.303.222 3.512 1.27Z"/><path fill="#CECFC1" d="M196.347 141.376c.051.254-.216.522-.597.598-.381.076-.731-.067-.782-.321-.051-.254.217-.522.598-.598.38-.076.73.068.781.321Z"/><path fill="#0F6545" stroke="#000" stroke-linejoin="round" stroke-width=".435" d="M224.714 142.815c-.319 1.019-1.942 1.418-3.626.889-1.683-.528-2.788-1.783-2.467-2.802.319-1.02 1.943-1.418 3.626-.89 1.684.529 2.788 1.784 2.467 2.803Z"/><path fill="#CECFC1" d="M221.362 140.779c-.078.247-.441.353-.812.237-.37-.116-.608-.411-.53-.658.077-.247.441-.353.811-.236.371.116.608.41.531.657Z"/><path fill="#1F2D86" stroke="#000" stroke-linejoin="round" stroke-width=".619" d="M212.591 139.186h-6.337v3.195h6.337v-3.195Z"/><path fill="#707C8B" d="M208.925 139.867c0 .144-.27.261-.602.261-.333 0-.603-.117-.603-.261 0-.145.27-.262.603-.262.332 0 .602.117.602.262Z"/><path fill="#9F1209" fill-rule="evenodd" stroke="#000" stroke-width=".326" d="m188.342 142.381 1.047 3.09-1.937 1.047s-.891.629-1.781.157c-.89-.471-1.416-1.883-.943-2.461.938-1.148 3.614-1.886 3.614-1.833Z" clip-rule="evenodd"/><path fill="#8F322F" d="M186.718 144.58c.001.521-.398.944-.89.944s-.891-.423-.89-.944c-.001-.521.398-.943.89-.943s.891.422.89.943Z"/><path fill="#E2A494" d="M185.876 144.211a.528.528 0 0 1-.102.431.261.261 0 0 1-.336.055c-.118-.066-.207-.21-.234-.376-.027-.167.011-.331.102-.431.09-.1.219-.121.336-.055.118.066.207.21.234.376Z"/><path fill="#9F1209" fill-rule="evenodd" stroke="#000" stroke-width=".326" d="m230.802 142.783-1.041 2.752 2.467 1.292s1.091.487 1.779-.117c.588-.517.721-1.712.252-2.316-.445-.572-3.491-1.628-3.457-1.611Z" clip-rule="evenodd"/><path fill="#AA675D" d="M233.755 144.989c0 .339-.353.613-.789.613-.435 0-.788-.274-.788-.613 0-.338.353-.612.788-.612.436 0 .789.274.789.612Z"/><path fill="#E2A494" d="M233 144.897c0 .162-.07.312-.184.393a.312.312 0 0 1-.37 0 .478.478 0 0 1-.184-.393.478.478 0 0 1 .184-.393.312.312 0 0 1 .37 0 .481.481 0 0 1 .184.393Z"/><path fill="#F5D8BC" d="M214.971 139.459c0 .235-.2.426-.446.426a.435.435 0 0 1-.446-.426.435.435 0 0 1 .446-.426c.246 0 .446.191.446.426ZM217.667 139.615a.436.436 0 0 1-.446.426.437.437 0 0 1-.446-.426c0-.236.2-.426.446-.426.247 0 .446.19.446.426ZM216.301 140.662a.548.548 0 0 1-.561.535.548.548 0 0 1-.561-.535c0-.295.251-.535.561-.535.31 0 .561.24.561.535ZM217.602 142.422c0 .235-.2.426-.446.426a.436.436 0 0 1-.446-.426c0-.236.199-.426.446-.426.246 0 .446.19.446.426ZM214.999 142.086a.435.435 0 0 1-.446.426.437.437 0 0 1-.446-.426c0-.235.2-.426.446-.426.247 0 .447.191.446.426ZM201.957 139.918a.437.437 0 0 1-.338.516.437.437 0 0 1-.531-.315.435.435 0 0 1 .338-.515.436.436 0 0 1 .531.314ZM204.619 139.461a.436.436 0 0 1-.338.516.436.436 0 0 1-.531-.314.436.436 0 0 1 .339-.516.435.435 0 0 1 .53.314ZM203.524 140.79a.548.548 0 0 1-.425.648.548.548 0 0 1-.667-.395.548.548 0 0 1 .425-.648.548.548 0 0 1 .667.395ZM205.189 142.211a.436.436 0 0 1-.339.515.435.435 0 0 1-.53-.314.436.436 0 0 1 .338-.516.438.438 0 0 1 .531.315ZM202.578 142.471a.437.437 0 0 1-.339.516.436.436 0 0 1-.53-.315.435.435 0 0 1 .338-.515.436.436 0 0 1 .531.314ZM190.59 142.372a.436.436 0 0 1-.262.558.435.435 0 0 1-.57-.235.437.437 0 0 1 .262-.559.437.437 0 0 1 .57.236ZM193.16 141.541a.436.436 0 0 1-.262.558.435.435 0 0 1-.57-.235.437.437 0 0 1 .262-.559.436.436 0 0 1 .57.236ZM192.265 143.012a.548.548 0 0 1-.329.702.548.548 0 0 1-.716-.296.547.547 0 0 1 .329-.702.548.548 0 0 1 .716.296ZM194.115 144.181a.437.437 0 0 1-.262.559.437.437 0 0 1-.57-.236.436.436 0 0 1 .262-.558c.23-.09.485.016.57.235ZM191.567 144.81a.436.436 0 0 1-.261.559.436.436 0 0 1-.57-.236.435.435 0 0 1 .261-.558.436.436 0 0 1 .57.235ZM226.679 141.135a.47.47 0 0 1-.576.332.47.47 0 0 1-.358-.56.47.47 0 0 1 .576-.332.47.47 0 0 1 .358.56ZM229.461 141.989a.47.47 0 0 1-.576.332.47.47 0 0 1-.358-.56.47.47 0 0 1 .576-.332.47.47 0 0 1 .358.56ZM227.762 142.735c-.075.31-.399.496-.724.417a.591.591 0 0 1-.449-.704c.075-.31.4-.496.724-.417.324.08.525.395.449.704ZM228.673 144.91a.47.47 0 0 1-.576.332.471.471 0 0 1-.358-.561.47.47 0 0 1 .576-.331.47.47 0 0 1 .358.56ZM226.035 143.892a.47.47 0 0 1-.575.331.47.47 0 0 1-.358-.56.47.47 0 0 1 .576-.331.469.469 0 0 1 .357.56Z"/><path stroke="#000" stroke-width=".75" d="M232.11 116.053s-1.282 1.202-2.804 1.202c-1.523 0-2.404-.641-2.885-.962-.481-.32.16-1.282.16-1.282"/><path stroke="#000" stroke-width=".685" d="M205.187 118.457s-2.324-.401-3.286-.721c-.961-.321-.721-.962-1.843-.882-1.121.081-2.243.882-2.003 2.004.241 1.121 1.042 1.282 1.843 1.041.801-.24.561-1.602-.481-1.522-1.041.08-.16.961-.16.961"/><path stroke="#000" stroke-width=".652" d="M189.161 116.694s.641.962 2.324.801c1.682-.16 2.323-1.041 2.403-1.442.081-.401 0-1.122-.32-1.442-.321-.321-1.442-.481-1.442-.481"/></svg>